<svg width="472" height="323" viewBox="0 0 472 323" fill="none" xmlns="http://www.w3.org/2000/svg">
<path d="M8 0.5H464C468.142 0.500006 471.5 3.85787 471.5 8V315C471.5 319.142 468.142 322.5 464 322.5H8C3.85787 322.5 0.5 319.142 0.5 315V8L0.509766 7.61426C0.704065 3.77915 3.77915 0.704063 7.61426 0.509766L8 0.5Z" fill="#4741B5" fill-opacity="0.08"/>
<path d="M8 0.5H464C468.142 0.500006 471.5 3.85787 471.5 8V315C471.5 319.142 468.142 322.5 464 322.5H8C3.85787 322.5 0.5 319.142 0.5 315V8L0.509766 7.61426C0.704065 3.77915 3.77915 0.704063 7.61426 0.509766L8 0.5Z" stroke="#4741B5"/>
<path d="M63 52C63 49.7909 64.7909 48 67 48H91C93.2091 48 95 49.7909 95 52V76C95 78.2091 93.2091 80 91 80H67C64.7909 80 63 78.2091 63 76V52Z" fill="white"/>
<path d="M79 57.3438C82.6875 57.3438 85.6562 60.3125 85.6562 64C85.6562 67.6875 82.6875 70.6562 79 70.6562C75.3125 70.6562 72.3438 67.6875 72.3438 64C72.3438 60.3125 75.3125 57.3438 79 57.3438ZM79 69.3438C81.9375 69.3438 84.3438 66.9375 84.3438 64C84.3438 61.0625 81.9375 58.6562 79 58.6562C76.0625 58.6562 73.6562 61.0625 73.6562 64C73.6562 66.9375 76.0625 69.3438 79 69.3438ZM82.0625 61.0625L83 62L77.6562 67.3438L75 64.6562L75.9375 63.7188L77.6562 65.4375L82.0625 61.0625Z" fill="#0B3573"/>
<path d="M209 50C209 47.7909 210.791 46 213 46H241C243.209 46 245 47.7909 245 50V78C245 80.2091 243.209 82 241 82H213C210.791 82 209 80.2091 209 78V50Z" fill="white"/>
<path d="M227 55.6797C231.609 55.6797 235.32 59.3906 235.32 64C235.32 68.6094 231.609 72.3203 227 72.3203C222.391 72.3203 218.68 68.6094 218.68 64C218.68 59.3906 222.391 55.6797 227 55.6797ZM227 70.6797C230.672 70.6797 233.68 67.6719 233.68 64C233.68 60.3281 230.672 57.3203 227 57.3203C223.328 57.3203 220.32 60.3281 220.32 64C220.32 67.6719 223.328 70.6797 227 70.6797ZM230.828 60.3281L232 61.5L225.32 68.1797L222 64.8203L223.172 63.6484L225.32 65.7969L230.828 60.3281Z" fill="#0B3573"/>
<path d="M359 43C359 40.7909 360.791 39 363 39H405C407.209 39 409 40.7909 409 43V85C409 87.2091 407.209 89 405 89H363C360.791 89 359 87.2091 359 85V43Z" fill="white"/>
<path d="M384 49.8555C391.836 49.8555 398.145 56.1641 398.145 64C398.145 71.8359 391.836 78.1445 384 78.1445C376.164 78.1445 369.855 71.8359 369.855 64C369.855 56.1641 376.164 49.8555 384 49.8555ZM384 75.3555C390.242 75.3555 395.355 70.2422 395.355 64C395.355 57.7578 390.242 52.6445 384 52.6445C377.758 52.6445 372.645 57.7578 372.645 64C372.645 70.2422 377.758 75.3555 384 75.3555ZM390.508 57.7578L392.5 59.75L381.145 71.1055L375.5 65.3945L377.492 63.4023L381.145 67.0547L390.508 57.7578Z" fill="#0B3573"/>
<rect x="64" y="120" width="345" height="164" rx="8" fill="white" fill-opacity="0.6"/>
<rect x="64" y="120" width="345" height="164" rx="8" stroke="white"/>
<path d="M84.8594 144.834H87.0566C86.9863 145.672 86.752 146.419 86.3535 147.075C85.9551 147.726 85.3955 148.238 84.6748 148.613C83.9541 148.988 83.0781 149.176 82.0469 149.176C81.2559 149.176 80.5439 149.035 79.9111 148.754C79.2783 148.467 78.7363 148.062 78.2852 147.541C77.834 147.014 77.4883 146.378 77.248 145.634C77.0137 144.89 76.8965 144.058 76.8965 143.138V142.074C76.8965 141.154 77.0166 140.322 77.2568 139.578C77.5029 138.834 77.8545 138.198 78.3115 137.671C78.7686 137.138 79.3164 136.73 79.9551 136.449C80.5996 136.168 81.3232 136.027 82.126 136.027C83.1455 136.027 84.0068 136.215 84.71 136.59C85.4131 136.965 85.958 137.483 86.3447 138.146C86.7373 138.808 86.9775 139.566 87.0654 140.422H84.8682C84.8096 139.871 84.6807 139.399 84.4814 139.007C84.2881 138.614 84.001 138.315 83.6201 138.11C83.2393 137.899 82.7412 137.794 82.126 137.794C81.6221 137.794 81.1826 137.888 80.8076 138.075C80.4326 138.263 80.1191 138.538 79.8672 138.901C79.6152 139.265 79.4248 139.713 79.2959 140.246C79.1729 140.773 79.1113 141.377 79.1113 142.057V143.138C79.1113 143.782 79.167 144.368 79.2783 144.896C79.3955 145.417 79.5713 145.865 79.8057 146.24C80.0459 146.615 80.3506 146.905 80.7197 147.11C81.0889 147.315 81.5312 147.418 82.0469 147.418C82.6738 147.418 83.1807 147.318 83.5674 147.119C83.96 146.92 84.2559 146.63 84.4551 146.249C84.6602 145.862 84.7949 145.391 84.8594 144.834ZM88.4453 144.351V144.148C88.4453 143.463 88.5449 142.827 88.7441 142.241C88.9434 141.649 89.2305 141.137 89.6055 140.703C89.9863 140.264 90.4492 139.924 90.9941 139.684C91.5449 139.438 92.166 139.314 92.8574 139.314C93.5547 139.314 94.1758 139.438 94.7207 139.684C95.2715 139.924 95.7373 140.264 96.1182 140.703C96.499 141.137 96.7891 141.649 96.9883 142.241C97.1875 142.827 97.2871 143.463 97.2871 144.148V144.351C97.2871 145.036 97.1875 145.672 96.9883 146.258C96.7891 146.844 96.499 147.356 96.1182 147.796C95.7373 148.229 95.2744 148.569 94.7295 148.815C94.1846 149.056 93.5664 149.176 92.875 149.176C92.1777 149.176 91.5537 149.056 91.0029 148.815C90.458 148.569 89.9951 148.229 89.6143 147.796C89.2334 147.356 88.9434 146.844 88.7441 146.258C88.5449 145.672 88.4453 145.036 88.4453 144.351ZM90.5635 144.148V144.351C90.5635 144.778 90.6074 145.183 90.6953 145.563C90.7832 145.944 90.9209 146.278 91.1084 146.565C91.2959 146.853 91.5361 147.078 91.8291 147.242C92.1221 147.406 92.4707 147.488 92.875 147.488C93.2676 147.488 93.6074 147.406 93.8945 147.242C94.1875 147.078 94.4277 146.853 94.6152 146.565C94.8027 146.278 94.9404 145.944 95.0283 145.563C95.1221 145.183 95.1689 144.778 95.1689 144.351V144.148C95.1689 143.727 95.1221 143.328 95.0283 142.953C94.9404 142.572 94.7998 142.235 94.6064 141.942C94.4189 141.649 94.1787 141.421 93.8857 141.257C93.5986 141.087 93.2559 141.002 92.8574 141.002C92.459 141.002 92.1133 141.087 91.8203 141.257C91.5332 141.421 91.2959 141.649 91.1084 141.942C90.9209 142.235 90.7832 142.572 90.6953 142.953C90.6074 143.328 90.5635 143.727 90.5635 144.148ZM101.163 141.521V149H99.0449V139.49H101.04L101.163 141.521ZM100.785 143.894L100.1 143.885C100.105 143.211 100.199 142.593 100.381 142.03C100.568 141.468 100.826 140.984 101.154 140.58C101.488 140.176 101.887 139.865 102.35 139.648C102.812 139.426 103.328 139.314 103.896 139.314C104.354 139.314 104.767 139.379 105.136 139.508C105.511 139.631 105.83 139.833 106.094 140.114C106.363 140.396 106.568 140.762 106.709 141.213C106.85 141.658 106.92 142.206 106.92 142.856V149H104.793V142.848C104.793 142.391 104.726 142.03 104.591 141.767C104.462 141.497 104.271 141.307 104.02 141.195C103.773 141.078 103.466 141.02 103.097 141.02C102.733 141.02 102.408 141.096 102.121 141.248C101.834 141.4 101.591 141.608 101.392 141.872C101.198 142.136 101.049 142.44 100.943 142.786C100.838 143.132 100.785 143.501 100.785 143.894ZM113.441 139.49V141.037H108.08V139.49H113.441ZM109.627 137.161H111.745V146.372C111.745 146.665 111.786 146.891 111.868 147.049C111.956 147.201 112.076 147.304 112.229 147.356C112.381 147.409 112.56 147.436 112.765 147.436C112.911 147.436 113.052 147.427 113.187 147.409C113.321 147.392 113.43 147.374 113.512 147.356L113.521 148.974C113.345 149.026 113.14 149.073 112.905 149.114C112.677 149.155 112.413 149.176 112.114 149.176C111.628 149.176 111.197 149.091 110.822 148.921C110.447 148.745 110.154 148.461 109.943 148.068C109.732 147.676 109.627 147.154 109.627 146.504V137.161ZM117.203 141.301V149H115.085V139.49H117.106L117.203 141.301ZM120.112 139.429L120.095 141.397C119.966 141.374 119.825 141.356 119.673 141.345C119.526 141.333 119.38 141.327 119.233 141.327C118.87 141.327 118.551 141.38 118.275 141.485C118 141.585 117.769 141.731 117.581 141.925C117.399 142.112 117.259 142.341 117.159 142.61C117.06 142.88 117.001 143.182 116.983 143.516L116.5 143.551C116.5 142.953 116.559 142.399 116.676 141.89C116.793 141.38 116.969 140.932 117.203 140.545C117.443 140.158 117.742 139.856 118.1 139.64C118.463 139.423 118.882 139.314 119.356 139.314C119.485 139.314 119.623 139.326 119.77 139.35C119.922 139.373 120.036 139.399 120.112 139.429ZM126.484 147.093V142.558C126.484 142.218 126.423 141.925 126.3 141.679C126.177 141.433 125.989 141.242 125.737 141.107C125.491 140.973 125.181 140.905 124.806 140.905C124.46 140.905 124.161 140.964 123.909 141.081C123.657 141.198 123.461 141.356 123.32 141.556C123.18 141.755 123.109 141.98 123.109 142.232H121C121 141.857 121.091 141.494 121.272 141.143C121.454 140.791 121.718 140.478 122.063 140.202C122.409 139.927 122.822 139.71 123.303 139.552C123.783 139.394 124.322 139.314 124.92 139.314C125.635 139.314 126.268 139.435 126.818 139.675C127.375 139.915 127.812 140.278 128.128 140.765C128.45 141.245 128.611 141.849 128.611 142.575V146.803C128.611 147.236 128.641 147.626 128.699 147.972C128.764 148.312 128.854 148.607 128.972 148.859V149H126.801C126.701 148.771 126.622 148.481 126.563 148.13C126.511 147.772 126.484 147.427 126.484 147.093ZM126.792 143.217L126.81 144.526H125.289C124.896 144.526 124.551 144.564 124.252 144.641C123.953 144.711 123.704 144.816 123.505 144.957C123.306 145.098 123.156 145.268 123.057 145.467C122.957 145.666 122.907 145.892 122.907 146.144C122.907 146.396 122.966 146.627 123.083 146.838C123.2 147.043 123.37 147.204 123.593 147.321C123.821 147.438 124.097 147.497 124.419 147.497C124.853 147.497 125.23 147.409 125.553 147.233C125.881 147.052 126.139 146.832 126.326 146.574C126.514 146.311 126.613 146.062 126.625 145.827L127.311 146.768C127.24 147.008 127.12 147.266 126.95 147.541C126.78 147.816 126.558 148.08 126.282 148.332C126.013 148.578 125.688 148.78 125.307 148.938C124.932 149.097 124.498 149.176 124.006 149.176C123.385 149.176 122.831 149.053 122.345 148.807C121.858 148.555 121.478 148.218 121.202 147.796C120.927 147.368 120.789 146.885 120.789 146.346C120.789 145.842 120.883 145.396 121.07 145.01C121.264 144.617 121.545 144.289 121.914 144.025C122.289 143.762 122.746 143.562 123.285 143.428C123.824 143.287 124.439 143.217 125.131 143.217H126.792ZM136.161 146.425C136.161 146.214 136.108 146.023 136.003 145.854C135.897 145.678 135.695 145.52 135.396 145.379C135.104 145.238 134.67 145.109 134.096 144.992C133.592 144.881 133.129 144.749 132.707 144.597C132.291 144.438 131.934 144.248 131.635 144.025C131.336 143.803 131.104 143.539 130.94 143.234C130.776 142.93 130.694 142.578 130.694 142.18C130.694 141.793 130.779 141.427 130.949 141.081C131.119 140.735 131.362 140.431 131.679 140.167C131.995 139.903 132.379 139.695 132.83 139.543C133.287 139.391 133.797 139.314 134.359 139.314C135.156 139.314 135.839 139.449 136.407 139.719C136.981 139.982 137.421 140.343 137.726 140.8C138.03 141.251 138.183 141.761 138.183 142.329H136.064C136.064 142.077 136 141.843 135.871 141.626C135.748 141.403 135.561 141.225 135.309 141.09C135.057 140.949 134.74 140.879 134.359 140.879C133.996 140.879 133.694 140.938 133.454 141.055C133.22 141.166 133.044 141.312 132.927 141.494C132.815 141.676 132.76 141.875 132.76 142.092C132.76 142.25 132.789 142.394 132.848 142.522C132.912 142.646 133.018 142.76 133.164 142.865C133.311 142.965 133.51 143.059 133.762 143.146C134.02 143.234 134.342 143.319 134.729 143.401C135.455 143.554 136.079 143.75 136.601 143.99C137.128 144.225 137.532 144.529 137.813 144.904C138.095 145.273 138.235 145.742 138.235 146.311C138.235 146.732 138.145 147.119 137.963 147.471C137.787 147.816 137.529 148.118 137.189 148.376C136.85 148.628 136.442 148.824 135.968 148.965C135.499 149.105 134.972 149.176 134.386 149.176C133.524 149.176 132.795 149.023 132.197 148.719C131.6 148.408 131.146 148.013 130.835 147.532C130.53 147.046 130.378 146.542 130.378 146.021H132.426C132.449 146.413 132.558 146.727 132.751 146.961C132.95 147.189 133.196 147.356 133.489 147.462C133.788 147.562 134.096 147.611 134.412 147.611C134.793 147.611 135.112 147.562 135.37 147.462C135.628 147.356 135.824 147.216 135.959 147.04C136.094 146.858 136.161 146.653 136.161 146.425ZM144.783 136.203H149.31C150.282 136.203 151.111 136.35 151.797 136.643C152.482 136.936 153.007 137.369 153.37 137.943C153.739 138.512 153.924 139.215 153.924 140.053C153.924 140.691 153.807 141.254 153.572 141.74C153.338 142.227 153.007 142.637 152.579 142.971C152.151 143.299 151.642 143.554 151.05 143.735L150.382 144.061H146.312L146.295 142.312H149.345C149.872 142.312 150.312 142.218 150.663 142.03C151.015 141.843 151.278 141.588 151.454 141.266C151.636 140.938 151.727 140.568 151.727 140.158C151.727 139.713 151.639 139.326 151.463 138.998C151.293 138.664 151.029 138.409 150.672 138.233C150.314 138.052 149.86 137.961 149.31 137.961H146.989V149H144.783V136.203ZM152.087 149L149.081 143.252L151.393 143.243L154.442 148.886V149H152.087ZM161.271 147.093V142.558C161.271 142.218 161.21 141.925 161.087 141.679C160.964 141.433 160.776 141.242 160.524 141.107C160.278 140.973 159.968 140.905 159.593 140.905C159.247 140.905 158.948 140.964 158.696 141.081C158.444 141.198 158.248 141.356 158.107 141.556C157.967 141.755 157.896 141.98 157.896 142.232H155.787C155.787 141.857 155.878 141.494 156.06 141.143C156.241 140.791 156.505 140.478 156.851 140.202C157.196 139.927 157.609 139.71 158.09 139.552C158.57 139.394 159.109 139.314 159.707 139.314C160.422 139.314 161.055 139.435 161.605 139.675C162.162 139.915 162.599 140.278 162.915 140.765C163.237 141.245 163.398 141.849 163.398 142.575V146.803C163.398 147.236 163.428 147.626 163.486 147.972C163.551 148.312 163.642 148.607 163.759 148.859V149H161.588C161.488 148.771 161.409 148.481 161.351 148.13C161.298 147.772 161.271 147.427 161.271 147.093ZM161.579 143.217L161.597 144.526H160.076C159.684 144.526 159.338 144.564 159.039 144.641C158.74 144.711 158.491 144.816 158.292 144.957C158.093 145.098 157.943 145.268 157.844 145.467C157.744 145.666 157.694 145.892 157.694 146.144C157.694 146.396 157.753 146.627 157.87 146.838C157.987 147.043 158.157 147.204 158.38 147.321C158.608 147.438 158.884 147.497 159.206 147.497C159.64 147.497 160.018 147.409 160.34 147.233C160.668 147.052 160.926 146.832 161.113 146.574C161.301 146.311 161.4 146.062 161.412 145.827L162.098 146.768C162.027 147.008 161.907 147.266 161.737 147.541C161.567 147.816 161.345 148.08 161.069 148.332C160.8 148.578 160.475 148.78 160.094 148.938C159.719 149.097 159.285 149.176 158.793 149.176C158.172 149.176 157.618 149.053 157.132 148.807C156.646 148.555 156.265 148.218 155.989 147.796C155.714 147.368 155.576 146.885 155.576 146.346C155.576 145.842 155.67 145.396 155.857 145.01C156.051 144.617 156.332 144.289 156.701 144.025C157.076 143.762 157.533 143.562 158.072 143.428C158.611 143.287 159.227 143.217 159.918 143.217H161.579ZM169.973 139.49V141.037H164.611V139.49H169.973ZM166.158 137.161H168.276V146.372C168.276 146.665 168.317 146.891 168.399 147.049C168.487 147.201 168.607 147.304 168.76 147.356C168.912 147.409 169.091 147.436 169.296 147.436C169.442 147.436 169.583 147.427 169.718 147.409C169.853 147.392 169.961 147.374 170.043 147.356L170.052 148.974C169.876 149.026 169.671 149.073 169.437 149.114C169.208 149.155 168.944 149.176 168.646 149.176C168.159 149.176 167.729 149.091 167.354 148.921C166.979 148.745 166.686 148.461 166.475 148.068C166.264 147.676 166.158 147.154 166.158 146.504V137.161ZM173.875 139.49V149H171.748V139.49H173.875ZM171.607 136.994C171.607 136.672 171.713 136.405 171.924 136.194C172.141 135.978 172.439 135.869 172.82 135.869C173.195 135.869 173.491 135.978 173.708 136.194C173.925 136.405 174.033 136.672 174.033 136.994C174.033 137.311 173.925 137.574 173.708 137.785C173.491 137.996 173.195 138.102 172.82 138.102C172.439 138.102 172.141 137.996 171.924 137.785C171.713 137.574 171.607 137.311 171.607 136.994ZM175.791 144.351V144.148C175.791 143.463 175.891 142.827 176.09 142.241C176.289 141.649 176.576 141.137 176.951 140.703C177.332 140.264 177.795 139.924 178.34 139.684C178.891 139.438 179.512 139.314 180.203 139.314C180.9 139.314 181.521 139.438 182.066 139.684C182.617 139.924 183.083 140.264 183.464 140.703C183.845 141.137 184.135 141.649 184.334 142.241C184.533 142.827 184.633 143.463 184.633 144.148V144.351C184.633 145.036 184.533 145.672 184.334 146.258C184.135 146.844 183.845 147.356 183.464 147.796C183.083 148.229 182.62 148.569 182.075 148.815C181.53 149.056 180.912 149.176 180.221 149.176C179.523 149.176 178.899 149.056 178.349 148.815C177.804 148.569 177.341 148.229 176.96 147.796C176.579 147.356 176.289 146.844 176.09 146.258C175.891 145.672 175.791 145.036 175.791 144.351ZM177.909 144.148V144.351C177.909 144.778 177.953 145.183 178.041 145.563C178.129 145.944 178.267 146.278 178.454 146.565C178.642 146.853 178.882 147.078 179.175 147.242C179.468 147.406 179.816 147.488 180.221 147.488C180.613 147.488 180.953 147.406 181.24 147.242C181.533 147.078 181.773 146.853 181.961 146.565C182.148 146.278 182.286 145.944 182.374 145.563C182.468 145.183 182.515 144.778 182.515 144.351V144.148C182.515 143.727 182.468 143.328 182.374 142.953C182.286 142.572 182.146 142.235 181.952 141.942C181.765 141.649 181.524 141.421 181.231 141.257C180.944 141.087 180.602 141.002 180.203 141.002C179.805 141.002 179.459 141.087 179.166 141.257C178.879 141.421 178.642 141.649 178.454 141.942C178.267 142.235 178.129 142.572 178.041 142.953C177.953 143.328 177.909 143.727 177.909 144.148Z" fill="black"/>
<path d="M354.983 137.492V147.5H353.719V139.071L351.169 140.001V138.859L354.785 137.492H354.983ZM362.858 137.492V147.5H361.594V139.071L359.044 140.001V138.859L362.66 137.492H362.858ZM366.734 146.83C366.734 146.616 366.8 146.436 366.933 146.29C367.069 146.14 367.265 146.064 367.521 146.064C367.776 146.064 367.969 146.14 368.102 146.29C368.238 146.436 368.307 146.616 368.307 146.83C368.307 147.04 368.238 147.217 368.102 147.363C367.969 147.509 367.776 147.582 367.521 147.582C367.265 147.582 367.069 147.509 366.933 147.363C366.8 147.217 366.734 147.04 366.734 146.83ZM376.544 144.807C376.544 145.413 376.403 145.928 376.12 146.352C375.842 146.771 375.464 147.09 374.985 147.309C374.511 147.527 373.976 147.637 373.379 147.637C372.782 147.637 372.244 147.527 371.766 147.309C371.287 147.09 370.909 146.771 370.631 146.352C370.353 145.928 370.214 145.413 370.214 144.807C370.214 144.41 370.289 144.048 370.439 143.72C370.594 143.387 370.811 143.098 371.089 142.852C371.371 142.605 371.704 142.416 372.087 142.284C372.474 142.147 372.9 142.079 373.365 142.079C373.976 142.079 374.521 142.198 374.999 142.435C375.478 142.667 375.854 142.988 376.127 143.398C376.405 143.809 376.544 144.278 376.544 144.807ZM375.272 144.779C375.272 144.41 375.193 144.084 375.033 143.802C374.874 143.515 374.65 143.291 374.363 143.132C374.076 142.972 373.743 142.893 373.365 142.893C372.978 142.893 372.643 142.972 372.36 143.132C372.082 143.291 371.866 143.515 371.711 143.802C371.556 144.084 371.479 144.41 371.479 144.779C371.479 145.162 371.554 145.49 371.704 145.764C371.859 146.033 372.078 146.24 372.36 146.386C372.647 146.527 372.987 146.598 373.379 146.598C373.771 146.598 374.108 146.527 374.391 146.386C374.673 146.24 374.89 146.033 375.04 145.764C375.195 145.49 375.272 145.162 375.272 144.779ZM376.312 140.138C376.312 140.621 376.184 141.056 375.929 141.443C375.674 141.831 375.325 142.136 374.883 142.359C374.441 142.583 373.939 142.694 373.379 142.694C372.809 142.694 372.301 142.583 371.854 142.359C371.412 142.136 371.066 141.831 370.815 141.443C370.565 141.056 370.439 140.621 370.439 140.138C370.439 139.559 370.565 139.067 370.815 138.661C371.071 138.256 371.419 137.946 371.861 137.731C372.303 137.517 372.807 137.41 373.372 137.41C373.942 137.41 374.448 137.517 374.89 137.731C375.332 137.946 375.678 138.256 375.929 138.661C376.184 139.067 376.312 139.559 376.312 140.138ZM375.047 140.158C375.047 139.826 374.976 139.532 374.835 139.276C374.694 139.021 374.498 138.821 374.247 138.675C373.996 138.524 373.705 138.449 373.372 138.449C373.039 138.449 372.748 138.52 372.497 138.661C372.251 138.798 372.057 138.994 371.916 139.249C371.779 139.504 371.711 139.807 371.711 140.158C371.711 140.5 371.779 140.799 371.916 141.054C372.057 141.309 372.253 141.507 372.504 141.648C372.755 141.79 373.046 141.86 373.379 141.86C373.712 141.86 374.001 141.79 374.247 141.648C374.498 141.507 374.694 141.309 374.835 141.054C374.976 140.799 375.047 140.5 375.047 140.158ZM379.743 142.763L378.731 142.503L379.23 137.547H384.337V138.716H380.304L380.003 141.423C380.185 141.318 380.415 141.22 380.693 141.129C380.976 141.038 381.299 140.992 381.664 140.992C382.124 140.992 382.537 141.072 382.901 141.231C383.266 141.386 383.576 141.61 383.831 141.901C384.091 142.193 384.289 142.544 384.426 142.954C384.562 143.364 384.631 143.822 384.631 144.328C384.631 144.807 384.565 145.246 384.433 145.647C384.305 146.049 384.111 146.399 383.852 146.7C383.592 146.996 383.264 147.227 382.867 147.391C382.475 147.555 382.013 147.637 381.479 147.637C381.078 147.637 380.698 147.582 380.338 147.473C379.982 147.359 379.663 147.188 379.381 146.96C379.103 146.728 378.875 146.44 378.697 146.099C378.524 145.752 378.415 145.347 378.369 144.882H379.572C379.627 145.256 379.736 145.57 379.9 145.825C380.064 146.08 380.279 146.274 380.543 146.406C380.812 146.534 381.124 146.598 381.479 146.598C381.78 146.598 382.047 146.545 382.279 146.44C382.512 146.336 382.708 146.185 382.867 145.989C383.027 145.793 383.147 145.556 383.229 145.278C383.316 145 383.359 144.688 383.359 144.342C383.359 144.027 383.316 143.736 383.229 143.467C383.143 143.198 383.013 142.963 382.84 142.763C382.671 142.562 382.464 142.407 382.218 142.298C381.972 142.184 381.689 142.127 381.37 142.127C380.946 142.127 380.625 142.184 380.406 142.298C380.192 142.412 379.971 142.567 379.743 142.763ZM386.101 146.83C386.101 146.616 386.167 146.436 386.299 146.29C386.436 146.14 386.632 146.064 386.887 146.064C387.142 146.064 387.336 146.14 387.468 146.29C387.604 146.436 387.673 146.616 387.673 146.83C387.673 147.04 387.604 147.217 387.468 147.363C387.336 147.509 387.142 147.582 386.887 147.582C386.632 147.582 386.436 147.509 386.299 147.363C386.167 147.217 386.101 147.04 386.101 146.83ZM386.107 140.794C386.107 140.58 386.174 140.4 386.306 140.254C386.442 140.104 386.638 140.028 386.894 140.028C387.149 140.028 387.342 140.104 387.475 140.254C387.611 140.4 387.68 140.58 387.68 140.794C387.68 141.004 387.611 141.181 387.475 141.327C387.342 141.473 387.149 141.546 386.894 141.546C386.638 141.546 386.442 141.473 386.306 141.327C386.174 141.181 386.107 141.004 386.107 140.794ZM393.565 137.492V147.5H392.301V139.071L389.751 140.001V138.859L393.367 137.492H393.565Z" fill="black"/>
<path d="M84.8115 187.047V197H83.4854L78.4746 189.323V197H77.1553V187.047H78.4746L83.5059 194.744V187.047H84.8115ZM86.623 193.384V193.227C86.623 192.693 86.7005 192.199 86.8555 191.743C87.0104 191.283 87.2337 190.884 87.5254 190.547C87.8171 190.205 88.1702 189.941 88.585 189.754C88.9997 189.562 89.4645 189.467 89.9795 189.467C90.499 189.467 90.9661 189.562 91.3809 189.754C91.8001 189.941 92.1556 190.205 92.4473 190.547C92.7435 190.884 92.9691 191.283 93.124 191.743C93.279 192.199 93.3564 192.693 93.3564 193.227V193.384C93.3564 193.917 93.279 194.411 93.124 194.867C92.9691 195.323 92.7435 195.722 92.4473 196.063C92.1556 196.401 91.8024 196.665 91.3877 196.856C90.9775 197.043 90.5127 197.137 89.9932 197.137C89.4736 197.137 89.0065 197.043 88.5918 196.856C88.1771 196.665 87.8216 196.401 87.5254 196.063C87.2337 195.722 87.0104 195.323 86.8555 194.867C86.7005 194.411 86.623 193.917 86.623 193.384ZM87.8877 193.227V193.384C87.8877 193.753 87.931 194.102 88.0176 194.43C88.1042 194.753 88.234 195.04 88.4072 195.291C88.585 195.542 88.806 195.74 89.0703 195.886C89.3346 196.027 89.6423 196.098 89.9932 196.098C90.3395 196.098 90.6426 196.027 90.9023 195.886C91.1667 195.74 91.3854 195.542 91.5586 195.291C91.7318 195.04 91.8617 194.753 91.9482 194.43C92.0394 194.102 92.085 193.753 92.085 193.384V193.227C92.085 192.862 92.0394 192.518 91.9482 192.194C91.8617 191.866 91.7295 191.577 91.5518 191.326C91.3786 191.071 91.1598 190.87 90.8955 190.725C90.6357 190.579 90.3304 190.506 89.9795 190.506C89.6331 190.506 89.3278 190.579 89.0635 190.725C88.8037 190.87 88.585 191.071 88.4072 191.326C88.234 191.577 88.1042 191.866 88.0176 192.194C87.931 192.518 87.8877 192.862 87.8877 193.227ZM96.207 190.766V197H94.9424V189.604H96.1729L96.207 190.766ZM98.5176 189.562L98.5107 190.738C98.4059 190.715 98.3057 190.702 98.21 190.697C98.1188 190.688 98.014 190.684 97.8955 190.684C97.6038 190.684 97.3464 190.729 97.123 190.82C96.8997 190.911 96.7106 191.039 96.5557 191.203C96.4007 191.367 96.2777 191.563 96.1865 191.791C96.0999 192.014 96.043 192.26 96.0156 192.529L95.6602 192.734C95.6602 192.288 95.7035 191.868 95.79 191.477C95.8812 191.085 96.0202 190.738 96.207 190.438C96.3939 190.132 96.6309 189.895 96.918 189.727C97.2096 189.553 97.556 189.467 97.957 189.467C98.0482 189.467 98.153 189.478 98.2715 189.501C98.39 189.519 98.472 189.54 98.5176 189.562ZM100.944 191.073V197H99.6729V189.604H100.876L100.944 191.073ZM100.685 193.021L100.097 193.001C100.101 192.495 100.167 192.028 100.295 191.6C100.423 191.167 100.612 190.791 100.862 190.472C101.113 190.153 101.425 189.907 101.799 189.733C102.173 189.556 102.605 189.467 103.098 189.467C103.444 189.467 103.763 189.517 104.055 189.617C104.346 189.713 104.599 189.866 104.813 190.075C105.028 190.285 105.194 190.554 105.312 190.882C105.431 191.21 105.49 191.606 105.49 192.071V197H104.226V192.133C104.226 191.745 104.16 191.436 104.027 191.203C103.9 190.971 103.717 190.802 103.48 190.697C103.243 190.588 102.965 190.533 102.646 190.533C102.273 190.533 101.961 190.599 101.71 190.731C101.459 190.864 101.259 191.046 101.108 191.278C100.958 191.511 100.849 191.777 100.78 192.078C100.716 192.374 100.685 192.689 100.685 193.021ZM105.477 192.324L104.629 192.584C104.633 192.178 104.7 191.789 104.827 191.415C104.959 191.041 105.148 190.709 105.395 190.417C105.645 190.125 105.953 189.895 106.317 189.727C106.682 189.553 107.099 189.467 107.568 189.467C107.965 189.467 108.316 189.519 108.621 189.624C108.931 189.729 109.191 189.891 109.4 190.109C109.615 190.324 109.776 190.599 109.886 190.937C109.995 191.274 110.05 191.675 110.05 192.14V197H108.778V192.126C108.778 191.711 108.712 191.39 108.58 191.162C108.452 190.93 108.27 190.768 108.033 190.677C107.801 190.581 107.523 190.533 107.199 190.533C106.921 190.533 106.675 190.581 106.461 190.677C106.247 190.772 106.067 190.905 105.921 191.073C105.775 191.237 105.663 191.426 105.586 191.641C105.513 191.855 105.477 192.083 105.477 192.324ZM116.325 195.735V191.928C116.325 191.636 116.266 191.383 116.147 191.169C116.034 190.95 115.86 190.782 115.628 190.663C115.396 190.545 115.108 190.485 114.767 190.485C114.448 190.485 114.167 190.54 113.926 190.649C113.689 190.759 113.502 190.902 113.365 191.08C113.233 191.258 113.167 191.449 113.167 191.654H111.902C111.902 191.39 111.971 191.128 112.107 190.868C112.244 190.608 112.44 190.374 112.695 190.164C112.955 189.95 113.265 189.781 113.625 189.658C113.99 189.531 114.395 189.467 114.842 189.467C115.38 189.467 115.854 189.558 116.264 189.74C116.678 189.923 117.002 190.198 117.234 190.567C117.471 190.932 117.59 191.39 117.59 191.941V195.387C117.59 195.633 117.61 195.895 117.651 196.173C117.697 196.451 117.763 196.69 117.85 196.891V197H116.53C116.466 196.854 116.416 196.66 116.38 196.419C116.343 196.173 116.325 195.945 116.325 195.735ZM116.544 192.516L116.558 193.404H115.279C114.919 193.404 114.598 193.434 114.315 193.493C114.033 193.548 113.796 193.632 113.604 193.746C113.413 193.86 113.267 194.004 113.167 194.177C113.067 194.345 113.017 194.544 113.017 194.771C113.017 195.004 113.069 195.216 113.174 195.407C113.279 195.599 113.436 195.751 113.646 195.865C113.86 195.975 114.122 196.029 114.432 196.029C114.819 196.029 115.161 195.947 115.457 195.783C115.753 195.619 115.988 195.419 116.161 195.182C116.339 194.945 116.435 194.715 116.448 194.491L116.988 195.1C116.956 195.291 116.87 195.503 116.729 195.735C116.587 195.968 116.398 196.191 116.161 196.405C115.929 196.615 115.651 196.79 115.327 196.932C115.008 197.068 114.648 197.137 114.247 197.137C113.746 197.137 113.306 197.039 112.928 196.843C112.554 196.647 112.262 196.385 112.053 196.057C111.848 195.724 111.745 195.353 111.745 194.942C111.745 194.546 111.823 194.197 111.978 193.896C112.132 193.591 112.356 193.338 112.647 193.138C112.939 192.933 113.29 192.778 113.7 192.673C114.11 192.568 114.568 192.516 115.074 192.516H116.544ZM120.953 186.5V197H119.682V186.5H120.953ZM130.052 187.047V197H128.753V187.047H130.052ZM133.251 187.047V188.127H125.561V187.047H133.251ZM136.922 197.137C136.407 197.137 135.94 197.05 135.521 196.877C135.106 196.699 134.748 196.451 134.447 196.132C134.151 195.813 133.923 195.435 133.764 194.997C133.604 194.56 133.524 194.081 133.524 193.562V193.274C133.524 192.673 133.613 192.137 133.791 191.668C133.969 191.194 134.21 190.793 134.516 190.465C134.821 190.137 135.167 189.888 135.555 189.72C135.942 189.551 136.343 189.467 136.758 189.467C137.286 189.467 137.742 189.558 138.125 189.74C138.512 189.923 138.829 190.178 139.075 190.506C139.321 190.829 139.504 191.212 139.622 191.654C139.741 192.092 139.8 192.57 139.8 193.09V193.657H134.276V192.625H138.535V192.529C138.517 192.201 138.449 191.882 138.33 191.572C138.216 191.262 138.034 191.007 137.783 190.807C137.533 190.606 137.191 190.506 136.758 190.506C136.471 190.506 136.206 190.567 135.965 190.69C135.723 190.809 135.516 190.987 135.343 191.224C135.17 191.461 135.035 191.75 134.939 192.092C134.844 192.434 134.796 192.828 134.796 193.274V193.562C134.796 193.912 134.844 194.243 134.939 194.553C135.04 194.858 135.183 195.127 135.37 195.359C135.562 195.592 135.792 195.774 136.061 195.906C136.334 196.038 136.644 196.104 136.99 196.104C137.437 196.104 137.815 196.013 138.125 195.831C138.435 195.649 138.706 195.405 138.938 195.1L139.704 195.708C139.545 195.95 139.342 196.18 139.096 196.398C138.85 196.617 138.547 196.795 138.187 196.932C137.831 197.068 137.41 197.137 136.922 197.137ZM142.131 189.604L143.751 192.297L145.392 189.604H146.875L144.455 193.254L146.95 197H145.487L143.778 194.225L142.069 197H140.6L143.088 193.254L140.675 189.604H142.131ZM151.318 189.604V190.574H147.319V189.604H151.318ZM148.673 187.806H149.938V195.168C149.938 195.419 149.976 195.608 150.054 195.735C150.131 195.863 150.231 195.947 150.354 195.988C150.478 196.029 150.61 196.05 150.751 196.05C150.856 196.05 150.965 196.041 151.079 196.022C151.198 196 151.286 195.981 151.346 195.968L151.353 197C151.252 197.032 151.12 197.062 150.956 197.089C150.797 197.121 150.603 197.137 150.375 197.137C150.065 197.137 149.78 197.075 149.521 196.952C149.261 196.829 149.053 196.624 148.898 196.337C148.748 196.045 148.673 195.653 148.673 195.161V187.806Z" fill="black"/>
<rect x="201.5" y="180.5" width="92" height="23" rx="11.5" fill="#F2F9E7"/>
<rect x="201.5" y="180.5" width="92" height="23" rx="11.5" stroke="#60A918"/>
<path d="M240.407 187.929L237.112 197H235.765L239.559 187.047H240.428L240.407 187.929ZM243.169 197L239.867 187.929L239.846 187.047H240.715L244.522 197H243.169ZM242.998 193.315V194.396H237.406V193.315H242.998ZM255.14 187.929L251.845 197H250.498L254.292 187.047H255.16L255.14 187.929ZM257.902 197L254.6 187.929L254.579 187.047H255.447L259.255 197H257.902ZM257.731 193.315V194.396H252.139V193.315H257.731Z" fill="black"/>
<rect x="304.5" y="180.5" width="92" height="23" rx="11.5" fill="#F2F9E7"/>
<rect x="304.5" y="180.5" width="92" height="23" rx="11.5" stroke="#60A918"/>
<path d="M336.041 187.929L332.746 197H331.399L335.193 187.047H336.061L336.041 187.929ZM338.802 197L335.501 187.929L335.48 187.047H336.348L340.156 197H338.802ZM338.631 193.315V194.396H333.04V193.315H338.631ZM350.773 187.929L347.479 197H346.132L349.926 187.047H350.794L350.773 187.929ZM353.535 197L350.233 187.929L350.213 187.047H351.081L354.889 197H353.535ZM353.364 193.315V194.396H347.772V193.315H353.364ZM365.506 187.929L362.211 197H360.865L364.659 187.047H365.527L365.506 187.929ZM368.268 197L364.966 187.929L364.946 187.047H365.814L369.621 197H368.268ZM368.097 193.315V194.396H362.505V193.315H368.097Z" fill="black"/>
<path d="M83.1914 229.927V231H78.2148V229.927H83.1914ZM78.4746 221.047V231H77.1553V221.047H78.4746ZM88.8721 229.735V225.928C88.8721 225.636 88.8128 225.383 88.6943 225.169C88.5804 224.95 88.4072 224.782 88.1748 224.663C87.9424 224.545 87.6553 224.485 87.3135 224.485C86.9945 224.485 86.7142 224.54 86.4727 224.649C86.2357 224.759 86.0488 224.902 85.9121 225.08C85.7799 225.258 85.7139 225.449 85.7139 225.654H84.4492C84.4492 225.39 84.5176 225.128 84.6543 224.868C84.791 224.608 84.987 224.374 85.2422 224.164C85.502 223.95 85.8118 223.781 86.1719 223.658C86.5365 223.531 86.9421 223.467 87.3887 223.467C87.9264 223.467 88.4004 223.558 88.8105 223.74C89.2253 223.923 89.5488 224.198 89.7812 224.567C90.0182 224.932 90.1367 225.39 90.1367 225.941V229.387C90.1367 229.633 90.1572 229.895 90.1982 230.173C90.2438 230.451 90.3099 230.69 90.3965 230.891V231H89.0771C89.0133 230.854 88.9632 230.66 88.9268 230.419C88.8903 230.173 88.8721 229.945 88.8721 229.735ZM89.0908 226.516L89.1045 227.404H87.8262C87.4661 227.404 87.1449 227.434 86.8623 227.493C86.5798 227.548 86.3428 227.632 86.1514 227.746C85.96 227.86 85.8141 228.004 85.7139 228.177C85.6136 228.345 85.5635 228.544 85.5635 228.771C85.5635 229.004 85.6159 229.216 85.7207 229.407C85.8255 229.599 85.9827 229.751 86.1924 229.865C86.4066 229.975 86.6686 230.029 86.9785 230.029C87.3659 230.029 87.7077 229.947 88.0039 229.783C88.3001 229.619 88.5348 229.419 88.708 229.182C88.8857 228.945 88.9814 228.715 88.9951 228.491L89.5352 229.1C89.5033 229.291 89.4167 229.503 89.2754 229.735C89.1341 229.968 88.945 230.191 88.708 230.405C88.4756 230.615 88.1976 230.79 87.874 230.932C87.555 231.068 87.195 231.137 86.7939 231.137C86.2926 231.137 85.8529 231.039 85.4746 230.843C85.1009 230.647 84.8092 230.385 84.5996 230.057C84.3945 229.724 84.292 229.353 84.292 228.942C84.292 228.546 84.3695 228.197 84.5244 227.896C84.6794 227.591 84.9027 227.338 85.1943 227.138C85.486 226.933 85.8369 226.778 86.2471 226.673C86.6572 226.568 87.1152 226.516 87.6211 226.516H89.0908ZM93.3906 224.766V231H92.126V223.604H93.3564L93.3906 224.766ZM95.7012 223.562L95.6943 224.738C95.5895 224.715 95.4893 224.702 95.3936 224.697C95.3024 224.688 95.1976 224.684 95.0791 224.684C94.7874 224.684 94.5299 224.729 94.3066 224.82C94.0833 224.911 93.8942 225.039 93.7393 225.203C93.5843 225.367 93.4613 225.563 93.3701 225.791C93.2835 226.014 93.2266 226.26 93.1992 226.529L92.8438 226.734C92.8438 226.288 92.887 225.868 92.9736 225.477C93.0648 225.085 93.2038 224.738 93.3906 224.438C93.5775 224.132 93.8145 223.895 94.1016 223.727C94.3932 223.553 94.7396 223.467 95.1406 223.467C95.2318 223.467 95.3366 223.478 95.4551 223.501C95.5736 223.519 95.6556 223.54 95.7012 223.562ZM101.525 223.604H102.674V230.843C102.674 231.494 102.542 232.05 102.277 232.511C102.013 232.971 101.644 233.32 101.17 233.557C100.701 233.798 100.158 233.919 99.543 233.919C99.2878 233.919 98.987 233.878 98.6406 233.796C98.2988 233.718 97.9616 233.584 97.6289 233.393C97.3008 233.206 97.0251 232.953 96.8018 232.634L97.4648 231.882C97.7747 232.256 98.0983 232.515 98.4355 232.661C98.7773 232.807 99.1146 232.88 99.4473 232.88C99.8483 232.88 100.195 232.805 100.486 232.654C100.778 232.504 101.004 232.281 101.163 231.984C101.327 231.693 101.409 231.333 101.409 230.904V225.23L101.525 223.604ZM96.4326 227.384V227.24C96.4326 226.675 96.4987 226.162 96.6309 225.702C96.7676 225.237 96.9613 224.839 97.2119 224.506C97.4671 224.173 97.7747 223.918 98.1348 223.74C98.4948 223.558 98.9004 223.467 99.3516 223.467C99.8164 223.467 100.222 223.549 100.568 223.713C100.919 223.872 101.215 224.107 101.457 224.417C101.703 224.722 101.897 225.091 102.038 225.524C102.179 225.957 102.277 226.447 102.332 226.994V227.623C102.282 228.165 102.184 228.653 102.038 229.086C101.897 229.519 101.703 229.888 101.457 230.193C101.215 230.499 100.919 230.733 100.568 230.897C100.217 231.057 99.8073 231.137 99.3379 231.137C98.8958 231.137 98.4948 231.043 98.1348 230.856C97.7793 230.67 97.474 230.408 97.2188 230.07C96.9635 229.733 96.7676 229.337 96.6309 228.881C96.4987 228.421 96.4326 227.922 96.4326 227.384ZM97.6973 227.24V227.384C97.6973 227.753 97.7337 228.099 97.8066 228.423C97.8841 228.746 98.0003 229.031 98.1553 229.277C98.3148 229.523 98.5176 229.717 98.7637 229.858C99.0098 229.995 99.3037 230.063 99.6455 230.063C100.065 230.063 100.411 229.975 100.685 229.797C100.958 229.619 101.174 229.384 101.334 229.093C101.498 228.801 101.626 228.484 101.717 228.143V226.495C101.667 226.244 101.589 226.003 101.484 225.771C101.384 225.534 101.252 225.324 101.088 225.142C100.928 224.955 100.73 224.807 100.493 224.697C100.256 224.588 99.9782 224.533 99.6592 224.533C99.3128 224.533 99.0143 224.606 98.7637 224.752C98.5176 224.893 98.3148 225.089 98.1553 225.34C98.0003 225.586 97.8841 225.873 97.8066 226.201C97.7337 226.525 97.6973 226.871 97.6973 227.24ZM107.664 231.137C107.149 231.137 106.682 231.05 106.263 230.877C105.848 230.699 105.49 230.451 105.189 230.132C104.893 229.813 104.665 229.435 104.506 228.997C104.346 228.56 104.267 228.081 104.267 227.562V227.274C104.267 226.673 104.355 226.137 104.533 225.668C104.711 225.194 104.952 224.793 105.258 224.465C105.563 224.137 105.91 223.888 106.297 223.72C106.684 223.551 107.085 223.467 107.5 223.467C108.029 223.467 108.484 223.558 108.867 223.74C109.255 223.923 109.571 224.178 109.817 224.506C110.063 224.829 110.246 225.212 110.364 225.654C110.483 226.092 110.542 226.57 110.542 227.09V227.657H105.019V226.625H109.277V226.529C109.259 226.201 109.191 225.882 109.072 225.572C108.958 225.262 108.776 225.007 108.525 224.807C108.275 224.606 107.933 224.506 107.5 224.506C107.213 224.506 106.949 224.567 106.707 224.69C106.465 224.809 106.258 224.987 106.085 225.224C105.912 225.461 105.777 225.75 105.682 226.092C105.586 226.434 105.538 226.828 105.538 227.274V227.562C105.538 227.912 105.586 228.243 105.682 228.553C105.782 228.858 105.925 229.127 106.112 229.359C106.304 229.592 106.534 229.774 106.803 229.906C107.076 230.038 107.386 230.104 107.732 230.104C108.179 230.104 108.557 230.013 108.867 229.831C109.177 229.649 109.448 229.405 109.681 229.1L110.446 229.708C110.287 229.95 110.084 230.18 109.838 230.398C109.592 230.617 109.289 230.795 108.929 230.932C108.573 231.068 108.152 231.137 107.664 231.137ZM119.087 221.047V231H117.788V221.047H119.087ZM122.286 221.047V222.127H114.596V221.047H122.286ZM125.957 231.137C125.442 231.137 124.975 231.05 124.556 230.877C124.141 230.699 123.783 230.451 123.482 230.132C123.186 229.813 122.958 229.435 122.799 228.997C122.639 228.56 122.56 228.081 122.56 227.562V227.274C122.56 226.673 122.648 226.137 122.826 225.668C123.004 225.194 123.245 224.793 123.551 224.465C123.856 224.137 124.202 223.888 124.59 223.72C124.977 223.551 125.378 223.467 125.793 223.467C126.322 223.467 126.777 223.558 127.16 223.74C127.548 223.923 127.864 224.178 128.11 224.506C128.356 224.829 128.539 225.212 128.657 225.654C128.776 226.092 128.835 226.57 128.835 227.09V227.657H123.312V226.625H127.57V226.529C127.552 226.201 127.484 225.882 127.365 225.572C127.251 225.262 127.069 225.007 126.818 224.807C126.568 224.606 126.226 224.506 125.793 224.506C125.506 224.506 125.242 224.567 125 224.69C124.758 224.809 124.551 224.987 124.378 225.224C124.205 225.461 124.07 225.75 123.975 226.092C123.879 226.434 123.831 226.828 123.831 227.274V227.562C123.831 227.912 123.879 228.243 123.975 228.553C124.075 228.858 124.218 229.127 124.405 229.359C124.597 229.592 124.827 229.774 125.096 229.906C125.369 230.038 125.679 230.104 126.025 230.104C126.472 230.104 126.85 230.013 127.16 229.831C127.47 229.649 127.741 229.405 127.974 229.1L128.739 229.708C128.58 229.95 128.377 230.18 128.131 230.398C127.885 230.617 127.582 230.795 127.222 230.932C126.866 231.068 126.445 231.137 125.957 231.137ZM131.166 223.604L132.786 226.297L134.427 223.604H135.91L133.49 227.254L135.985 231H134.522L132.813 228.225L131.104 231H129.635L132.123 227.254L129.71 223.604H131.166ZM140.354 223.604V224.574H136.354V223.604H140.354ZM137.708 221.806H138.973V229.168C138.973 229.419 139.011 229.608 139.089 229.735C139.166 229.863 139.267 229.947 139.39 229.988C139.513 230.029 139.645 230.05 139.786 230.05C139.891 230.05 140 230.041 140.114 230.022C140.233 230 140.322 229.981 140.381 229.968L140.388 231C140.287 231.032 140.155 231.062 139.991 231.089C139.832 231.121 139.638 231.137 139.41 231.137C139.1 231.137 138.815 231.075 138.556 230.952C138.296 230.829 138.089 230.624 137.934 230.337C137.783 230.045 137.708 229.653 137.708 229.161V221.806Z" fill="black"/>
<rect x="201.5" y="214.5" width="92" height="23" rx="11.5" fill="#F2F9E7"/>
<rect x="201.5" y="214.5" width="92" height="23" rx="11.5" stroke="#60A918"/>
<path d="M240.407 221.929L237.112 231H235.765L239.559 221.047H240.428L240.407 221.929ZM243.169 231L239.867 221.929L239.846 221.047H240.715L244.522 231H243.169ZM242.998 227.315V228.396H237.406V227.315H242.998ZM255.14 221.929L251.845 231H250.498L254.292 221.047H255.16L255.14 221.929ZM257.902 231L254.6 221.929L254.579 221.047H255.447L259.255 231H257.902ZM257.731 227.315V228.396H252.139V227.315H257.731Z" fill="black"/>
<rect x="304.5" y="214.5" width="92" height="23" rx="11.5" fill="#F2F9E7"/>
<rect x="304.5" y="214.5" width="92" height="23" rx="11.5" stroke="#60A918"/>
<path d="M336.041 221.929L332.746 231H331.399L335.193 221.047H336.061L336.041 221.929ZM338.802 231L335.501 221.929L335.48 221.047H336.348L340.156 231H338.802ZM338.631 227.315V228.396H333.04V227.315H338.631ZM350.773 221.929L347.479 231H346.132L349.926 221.047H350.794L350.773 221.929ZM353.535 231L350.233 221.929L350.213 221.047H351.081L354.889 231H353.535ZM353.364 227.315V228.396H347.772V227.315H353.364ZM365.506 221.929L362.211 231H360.865L364.659 221.047H365.527L365.506 221.929ZM368.268 231L364.966 221.929L364.946 221.047H365.814L369.621 231H368.268ZM368.097 227.315V228.396H362.505V227.315H368.097Z" fill="black"/>
<path d="M84.8115 255.047V265H83.4854L78.4746 257.323V265H77.1553V255.047H78.4746L83.5059 262.744V255.047H84.8115ZM86.623 261.384V261.227C86.623 260.693 86.7005 260.199 86.8555 259.743C87.0104 259.283 87.2337 258.884 87.5254 258.547C87.8171 258.205 88.1702 257.941 88.585 257.754C88.9997 257.562 89.4645 257.467 89.9795 257.467C90.499 257.467 90.9661 257.562 91.3809 257.754C91.8001 257.941 92.1556 258.205 92.4473 258.547C92.7435 258.884 92.9691 259.283 93.124 259.743C93.279 260.199 93.3564 260.693 93.3564 261.227V261.384C93.3564 261.917 93.279 262.411 93.124 262.867C92.9691 263.323 92.7435 263.722 92.4473 264.063C92.1556 264.401 91.8024 264.665 91.3877 264.856C90.9775 265.043 90.5127 265.137 89.9932 265.137C89.4736 265.137 89.0065 265.043 88.5918 264.856C88.1771 264.665 87.8216 264.401 87.5254 264.063C87.2337 263.722 87.0104 263.323 86.8555 262.867C86.7005 262.411 86.623 261.917 86.623 261.384ZM87.8877 261.227V261.384C87.8877 261.753 87.931 262.102 88.0176 262.43C88.1042 262.753 88.234 263.04 88.4072 263.291C88.585 263.542 88.806 263.74 89.0703 263.886C89.3346 264.027 89.6423 264.098 89.9932 264.098C90.3395 264.098 90.6426 264.027 90.9023 263.886C91.1667 263.74 91.3854 263.542 91.5586 263.291C91.7318 263.04 91.8617 262.753 91.9482 262.43C92.0394 262.102 92.085 261.753 92.085 261.384V261.227C92.085 260.862 92.0394 260.518 91.9482 260.194C91.8617 259.866 91.7295 259.577 91.5518 259.326C91.3786 259.071 91.1598 258.87 90.8955 258.725C90.6357 258.579 90.3304 258.506 89.9795 258.506C89.6331 258.506 89.3278 258.579 89.0635 258.725C88.8037 258.87 88.585 259.071 88.4072 259.326C88.234 259.577 88.1042 259.866 88.0176 260.194C87.931 260.518 87.8877 260.862 87.8877 261.227ZM96.207 258.766V265H94.9424V257.604H96.1729L96.207 258.766ZM98.5176 257.562L98.5107 258.738C98.4059 258.715 98.3057 258.702 98.21 258.697C98.1188 258.688 98.014 258.684 97.8955 258.684C97.6038 258.684 97.3464 258.729 97.123 258.82C96.8997 258.911 96.7106 259.039 96.5557 259.203C96.4007 259.367 96.2777 259.563 96.1865 259.791C96.0999 260.014 96.043 260.26 96.0156 260.529L95.6602 260.734C95.6602 260.288 95.7035 259.868 95.79 259.477C95.8812 259.085 96.0202 258.738 96.207 258.438C96.3939 258.132 96.6309 257.895 96.918 257.727C97.2096 257.553 97.556 257.467 97.957 257.467C98.0482 257.467 98.153 257.478 98.2715 257.501C98.39 257.519 98.472 257.54 98.5176 257.562ZM100.944 259.073V265H99.6729V257.604H100.876L100.944 259.073ZM100.685 261.021L100.097 261.001C100.101 260.495 100.167 260.028 100.295 259.6C100.423 259.167 100.612 258.791 100.862 258.472C101.113 258.153 101.425 257.907 101.799 257.733C102.173 257.556 102.605 257.467 103.098 257.467C103.444 257.467 103.763 257.517 104.055 257.617C104.346 257.713 104.599 257.866 104.813 258.075C105.028 258.285 105.194 258.554 105.312 258.882C105.431 259.21 105.49 259.606 105.49 260.071V265H104.226V260.133C104.226 259.745 104.16 259.436 104.027 259.203C103.9 258.971 103.717 258.802 103.48 258.697C103.243 258.588 102.965 258.533 102.646 258.533C102.273 258.533 101.961 258.599 101.71 258.731C101.459 258.864 101.259 259.046 101.108 259.278C100.958 259.511 100.849 259.777 100.78 260.078C100.716 260.374 100.685 260.689 100.685 261.021ZM105.477 260.324L104.629 260.584C104.633 260.178 104.7 259.789 104.827 259.415C104.959 259.041 105.148 258.709 105.395 258.417C105.645 258.125 105.953 257.895 106.317 257.727C106.682 257.553 107.099 257.467 107.568 257.467C107.965 257.467 108.316 257.519 108.621 257.624C108.931 257.729 109.191 257.891 109.4 258.109C109.615 258.324 109.776 258.599 109.886 258.937C109.995 259.274 110.05 259.675 110.05 260.14V265H108.778V260.126C108.778 259.711 108.712 259.39 108.58 259.162C108.452 258.93 108.27 258.768 108.033 258.677C107.801 258.581 107.523 258.533 107.199 258.533C106.921 258.533 106.675 258.581 106.461 258.677C106.247 258.772 106.067 258.905 105.921 259.073C105.775 259.237 105.663 259.426 105.586 259.641C105.513 259.855 105.477 260.083 105.477 260.324ZM116.325 263.735V259.928C116.325 259.636 116.266 259.383 116.147 259.169C116.034 258.95 115.86 258.782 115.628 258.663C115.396 258.545 115.108 258.485 114.767 258.485C114.448 258.485 114.167 258.54 113.926 258.649C113.689 258.759 113.502 258.902 113.365 259.08C113.233 259.258 113.167 259.449 113.167 259.654H111.902C111.902 259.39 111.971 259.128 112.107 258.868C112.244 258.608 112.44 258.374 112.695 258.164C112.955 257.95 113.265 257.781 113.625 257.658C113.99 257.531 114.395 257.467 114.842 257.467C115.38 257.467 115.854 257.558 116.264 257.74C116.678 257.923 117.002 258.198 117.234 258.567C117.471 258.932 117.59 259.39 117.59 259.941V263.387C117.59 263.633 117.61 263.895 117.651 264.173C117.697 264.451 117.763 264.69 117.85 264.891V265H116.53C116.466 264.854 116.416 264.66 116.38 264.419C116.343 264.173 116.325 263.945 116.325 263.735ZM116.544 260.516L116.558 261.404H115.279C114.919 261.404 114.598 261.434 114.315 261.493C114.033 261.548 113.796 261.632 113.604 261.746C113.413 261.86 113.267 262.004 113.167 262.177C113.067 262.345 113.017 262.544 113.017 262.771C113.017 263.004 113.069 263.216 113.174 263.407C113.279 263.599 113.436 263.751 113.646 263.865C113.86 263.975 114.122 264.029 114.432 264.029C114.819 264.029 115.161 263.947 115.457 263.783C115.753 263.619 115.988 263.419 116.161 263.182C116.339 262.945 116.435 262.715 116.448 262.491L116.988 263.1C116.956 263.291 116.87 263.503 116.729 263.735C116.587 263.968 116.398 264.191 116.161 264.405C115.929 264.615 115.651 264.79 115.327 264.932C115.008 265.068 114.648 265.137 114.247 265.137C113.746 265.137 113.306 265.039 112.928 264.843C112.554 264.647 112.262 264.385 112.053 264.057C111.848 263.724 111.745 263.353 111.745 262.942C111.745 262.546 111.823 262.197 111.978 261.896C112.132 261.591 112.356 261.338 112.647 261.138C112.939 260.933 113.29 260.778 113.7 260.673C114.11 260.568 114.568 260.516 115.074 260.516H116.544ZM120.953 254.5V265H119.682V254.5H120.953ZM130.052 255.047V265H128.753V255.047H130.052ZM133.251 255.047V256.127H125.561V255.047H133.251ZM136.922 265.137C136.407 265.137 135.94 265.05 135.521 264.877C135.106 264.699 134.748 264.451 134.447 264.132C134.151 263.813 133.923 263.435 133.764 262.997C133.604 262.56 133.524 262.081 133.524 261.562V261.274C133.524 260.673 133.613 260.137 133.791 259.668C133.969 259.194 134.21 258.793 134.516 258.465C134.821 258.137 135.167 257.888 135.555 257.72C135.942 257.551 136.343 257.467 136.758 257.467C137.286 257.467 137.742 257.558 138.125 257.74C138.512 257.923 138.829 258.178 139.075 258.506C139.321 258.829 139.504 259.212 139.622 259.654C139.741 260.092 139.8 260.57 139.8 261.09V261.657H134.276V260.625H138.535V260.529C138.517 260.201 138.449 259.882 138.33 259.572C138.216 259.262 138.034 259.007 137.783 258.807C137.533 258.606 137.191 258.506 136.758 258.506C136.471 258.506 136.206 258.567 135.965 258.69C135.723 258.809 135.516 258.987 135.343 259.224C135.17 259.461 135.035 259.75 134.939 260.092C134.844 260.434 134.796 260.828 134.796 261.274V261.562C134.796 261.912 134.844 262.243 134.939 262.553C135.04 262.858 135.183 263.127 135.37 263.359C135.562 263.592 135.792 263.774 136.061 263.906C136.334 264.038 136.644 264.104 136.99 264.104C137.437 264.104 137.815 264.013 138.125 263.831C138.435 263.649 138.706 263.405 138.938 263.1L139.704 263.708C139.545 263.95 139.342 264.18 139.096 264.398C138.85 264.617 138.547 264.795 138.187 264.932C137.831 265.068 137.41 265.137 136.922 265.137ZM142.131 257.604L143.751 260.297L145.392 257.604H146.875L144.455 261.254L146.95 265H145.487L143.778 262.225L142.069 265H140.6L143.088 261.254L140.675 257.604H142.131ZM151.318 257.604V258.574H147.319V257.604H151.318ZM148.673 255.806H149.938V263.168C149.938 263.419 149.976 263.608 150.054 263.735C150.131 263.863 150.231 263.947 150.354 263.988C150.478 264.029 150.61 264.05 150.751 264.05C150.856 264.05 150.965 264.041 151.079 264.022C151.198 264 151.286 263.981 151.346 263.968L151.353 265C151.252 265.032 151.12 265.062 150.956 265.089C150.797 265.121 150.603 265.137 150.375 265.137C150.065 265.137 149.78 265.075 149.521 264.952C149.261 264.829 149.053 264.624 148.898 264.337C148.748 264.045 148.673 263.653 148.673 263.161V255.806Z" fill="black"/>
<rect x="304.5" y="248.5" width="92" height="23" rx="11.5" fill="#F2F9E7"/>
<rect x="304.5" y="248.5" width="92" height="23" rx="11.5" stroke="#60A918"/>
<path d="M343.407 255.929L340.112 265H338.765L342.559 255.047H343.428L343.407 255.929ZM346.169 265L342.867 255.929L342.846 255.047H343.715L347.522 265H346.169ZM345.998 261.315V262.396H340.406V261.315H345.998ZM358.14 255.929L354.845 265H353.498L357.292 255.047H358.16L358.14 255.929ZM360.902 265L357.6 255.929L357.579 255.047H358.447L362.255 265H360.902ZM360.731 261.315V262.396H355.139V261.315H360.731Z" fill="black"/>
</svg>
