<svg width="472" height="190" viewBox="0 0 472 190" fill="none" xmlns="http://www.w3.org/2000/svg">
<path d="M8 0.5H464C468.142 0.500006 471.5 3.85787 471.5 8V182C471.5 186.142 468.142 189.5 464 189.5H8C3.85787 189.5 0.5 186.142 0.5 182V8C0.5 3.98724 3.65139 0.710536 7.61426 0.509766L8 0.5Z" fill="#4741B5" fill-opacity="0.08"/>
<path d="M8 0.5H464C468.142 0.500006 471.5 3.85787 471.5 8V182C471.5 186.142 468.142 189.5 464 189.5H8C3.85787 189.5 0.5 186.142 0.5 182V8C0.5 3.98724 3.65139 0.710536 7.61426 0.509766L8 0.5Z" stroke="#4741B5"/>
<path d="M83 67C83 64.7909 84.7909 63 87 63H111C113.209 63 115 64.7909 115 67V91C115 93.2091 113.209 95 111 95H87C84.7909 95 83 93.2091 83 91V67Z" fill="white"/>
<path d="M104.344 73C105.062 73 105.656 73.5938 105.656 74.3438V82.3438C105.656 83.0625 105.062 83.6562 104.344 83.6562H101.656V85H96.3438V83.6562H93.6562C92.9375 83.6562 92.3438 83.0625 92.3438 82.3438V74.3438C92.3438 73.5938 92.9375 73 93.6562 73H104.344ZM104.344 82.3438V74.3438H93.6562V82.3438H104.344ZM95 76.5V77.5H100.344V76.5H95ZM102 77.5V78.3438H101V75.6562H102V76.5H103V77.5H102ZM97.6562 79.1562V80.1562H103V79.1562H97.6562ZM96 81V80.1562H95V79.1562H96V78.3438H97V81H96Z" fill="#101840" fill-opacity="0.54"/>
<path d="M229 65C229 62.7909 230.791 61 233 61H261C263.209 61 265 62.7909 265 65V93C265 95.2091 263.209 97 261 97H233C230.791 97 229 95.2091 229 93V65Z" fill="white"/>
<path d="M253.68 71.5C254.578 71.5 255.32 72.2422 255.32 73.1797V83.1797C255.32 84.0781 254.578 84.8203 253.68 84.8203H250.32V86.5H243.68V84.8203H240.32C239.422 84.8203 238.68 84.0781 238.68 83.1797V73.1797C238.68 72.2422 239.422 71.5 240.32 71.5H253.68ZM253.68 83.1797V73.1797H240.32V83.1797H253.68ZM242 75.875V77.125H248.68V75.875H242ZM250.75 77.125V78.1797H249.5V74.8203H250.75V75.875H252V77.125H250.75ZM245.32 79.1953V80.4453H252V79.1953H245.32ZM243.25 81.5V80.4453H242V79.1953H243.25V78.1797H244.5V81.5H243.25Z" fill="#101840" fill-opacity="0.54"/>
<g clip-path="url(#clip0_1_2)">
<line x1="237.5" y1="112" x2="237.5" y2="97" stroke="#4741B5"/>
<line x1="237" y1="104.5" x2="257" y2="104.5" stroke="#4741B5"/>
<line x1="256.5" y1="112" x2="256.5" y2="97" stroke="#4741B5"/>
</g>
<path d="M246.558 129H239.88V127.865L243.12 124.338C243.389 124.042 243.614 123.777 243.797 123.545C243.979 123.308 244.127 123.091 244.241 122.896C244.35 122.7 244.428 122.517 244.473 122.349C244.523 122.175 244.549 122.002 244.549 121.829C244.549 121.597 244.514 121.385 244.446 121.193C244.378 121.002 244.277 120.838 244.145 120.701C244.013 120.564 243.854 120.457 243.667 120.38C243.484 120.302 243.279 120.264 243.051 120.264C242.76 120.264 242.507 120.305 242.293 120.387C242.078 120.469 241.901 120.585 241.759 120.735C241.614 120.895 241.504 121.089 241.431 121.316C241.358 121.54 241.322 121.795 241.322 122.082H239.681C239.681 121.649 239.761 121.241 239.921 120.858C240.08 120.471 240.308 120.134 240.604 119.847C240.896 119.56 241.251 119.332 241.671 119.163C242.094 118.994 242.566 118.91 243.086 118.91C243.573 118.91 244.008 118.981 244.391 119.122C244.779 119.263 245.105 119.459 245.369 119.71C245.629 119.961 245.827 120.261 245.964 120.612C246.1 120.959 246.169 121.341 246.169 121.761C246.169 122.075 246.116 122.381 246.011 122.677C245.911 122.968 245.772 123.258 245.594 123.545C245.412 123.832 245.196 124.121 244.945 124.413C244.699 124.705 244.43 125.006 244.138 125.315L241.924 127.681H246.558V129ZM254.874 125.206C254.874 125.844 254.799 126.409 254.649 126.901C254.503 127.389 254.291 127.797 254.013 128.125C253.74 128.462 253.402 128.717 253.001 128.891C252.605 129.059 252.154 129.144 251.648 129.144C251.146 129.144 250.695 129.059 250.294 128.891C249.893 128.717 249.554 128.462 249.276 128.125C248.993 127.797 248.777 127.389 248.626 126.901C248.48 126.409 248.408 125.844 248.408 125.206V122.848C248.408 122.21 248.48 121.647 248.626 121.159C248.777 120.667 248.991 120.252 249.269 119.915C249.547 119.582 249.884 119.332 250.281 119.163C250.682 118.99 251.133 118.903 251.634 118.903C252.14 118.903 252.591 118.99 252.988 119.163C253.389 119.332 253.73 119.582 254.013 119.915C254.286 120.252 254.498 120.667 254.649 121.159C254.799 121.647 254.874 122.21 254.874 122.848V125.206ZM250.048 124.625L253.213 122.226C253.195 121.87 253.145 121.562 253.063 121.303C252.985 121.043 252.874 120.831 252.728 120.667C252.6 120.521 252.443 120.412 252.256 120.339C252.074 120.266 251.867 120.229 251.634 120.229C251.383 120.229 251.162 120.273 250.971 120.359C250.78 120.446 250.62 120.574 250.492 120.742C250.342 120.934 250.23 121.182 250.158 121.487C250.085 121.788 250.048 122.144 250.048 122.554V123.894C250.048 124.067 250.048 124.199 250.048 124.29C250.048 124.381 250.048 124.493 250.048 124.625ZM253.227 125.479V124.222C253.227 124.108 253.227 123.989 253.227 123.866C253.227 123.743 253.227 123.616 253.227 123.483L250.062 125.869C250.085 126.184 250.132 126.462 250.205 126.703C250.283 126.945 250.385 127.145 250.513 127.305C250.641 127.478 250.798 127.608 250.985 127.694C251.176 127.781 251.397 127.824 251.648 127.824C251.894 127.824 252.11 127.783 252.297 127.701C252.484 127.615 252.644 127.489 252.776 127.325C252.926 127.134 253.038 126.883 253.111 126.573C253.188 126.263 253.227 125.899 253.227 125.479Z" fill="#4741B5"/>
<g clip-path="url(#clip1_1_2)">
<line x1="214" y1="69.5" x2="229" y2="69.5" stroke="#4741B5"/>
<line x1="221.5" y1="90" x2="221.5" y2="70" stroke="#4741B5"/>
<line x1="214" y1="88.5" x2="229" y2="88.5" stroke="#4741B5"/>
</g>
<path d="M200.72 84H194.041V82.8652L197.282 79.3379C197.55 79.0417 197.776 78.7773 197.958 78.5449C198.141 78.3079 198.289 78.0915 198.403 77.8955C198.512 77.6995 198.59 77.5173 198.635 77.3486C198.685 77.1755 198.71 77.0023 198.71 76.8291C198.71 76.5967 198.676 76.3848 198.608 76.1934C198.539 76.002 198.439 75.8379 198.307 75.7012C198.175 75.5645 198.015 75.4574 197.828 75.3799C197.646 75.3024 197.441 75.2637 197.213 75.2637C196.922 75.2637 196.669 75.3047 196.454 75.3867C196.24 75.4688 196.063 75.585 195.921 75.7354C195.775 75.8949 195.666 76.0885 195.593 76.3164C195.52 76.5397 195.484 76.7949 195.484 77.082H193.843C193.843 76.6491 193.923 76.2412 194.082 75.8584C194.242 75.471 194.47 75.1338 194.766 74.8467C195.058 74.5596 195.413 74.3317 195.832 74.1631C196.256 73.9945 196.728 73.9102 197.247 73.9102C197.735 73.9102 198.17 73.9808 198.553 74.1221C198.94 74.2633 199.266 74.4593 199.531 74.71C199.79 74.9606 199.989 75.2614 200.125 75.6123C200.262 75.9587 200.33 76.3415 200.33 76.7607C200.33 77.0752 200.278 77.3805 200.173 77.6768C200.073 77.9684 199.934 78.2578 199.756 78.5449C199.574 78.832 199.357 79.1214 199.107 79.4131C198.861 79.7048 198.592 80.0055 198.3 80.3154L196.085 82.6807H200.72V84ZM209.036 80.2061C209.036 80.8441 208.961 81.4092 208.811 81.9014C208.665 82.389 208.453 82.7969 208.175 83.125C207.901 83.4622 207.564 83.7174 207.163 83.8906C206.767 84.0592 206.315 84.1436 205.81 84.1436C205.308 84.1436 204.857 84.0592 204.456 83.8906C204.055 83.7174 203.715 83.4622 203.437 83.125C203.155 82.7969 202.938 82.389 202.788 81.9014C202.642 81.4092 202.569 80.8441 202.569 80.2061V77.8477C202.569 77.2096 202.642 76.6468 202.788 76.1592C202.938 75.667 203.153 75.2523 203.431 74.915C203.709 74.5824 204.046 74.3317 204.442 74.1631C204.843 73.9899 205.295 73.9033 205.796 73.9033C206.302 73.9033 206.753 73.9899 207.149 74.1631C207.55 74.3317 207.892 74.5824 208.175 74.915C208.448 75.2523 208.66 75.667 208.811 76.1592C208.961 76.6468 209.036 77.2096 209.036 77.8477V80.2061ZM204.21 79.625L207.375 77.2256C207.357 76.8701 207.307 76.5625 207.225 76.3027C207.147 76.043 207.035 75.8311 206.89 75.667C206.762 75.5212 206.605 75.4118 206.418 75.3389C206.236 75.266 206.028 75.2295 205.796 75.2295C205.545 75.2295 205.324 75.2728 205.133 75.3594C204.941 75.446 204.782 75.5736 204.654 75.7422C204.504 75.9336 204.392 76.182 204.319 76.4873C204.246 76.7881 204.21 77.1436 204.21 77.5537V78.8936C204.21 79.0667 204.21 79.1989 204.21 79.29C204.21 79.3812 204.21 79.4928 204.21 79.625ZM207.389 80.4795V79.2217C207.389 79.1077 207.389 78.9893 207.389 78.8662C207.389 78.7432 207.389 78.6156 207.389 78.4834L204.224 80.8691C204.246 81.1836 204.294 81.4616 204.367 81.7031C204.445 81.9447 204.547 82.1452 204.675 82.3047C204.802 82.4779 204.96 82.6077 205.146 82.6943C205.338 82.7809 205.559 82.8242 205.81 82.8242C206.056 82.8242 206.272 82.7832 206.459 82.7012C206.646 82.6146 206.805 82.4893 206.937 82.3252C207.088 82.1338 207.2 81.8831 207.272 81.5732C207.35 81.2633 207.389 80.8988 207.389 80.4795Z" fill="#4741B5"/>
<path d="M379 58C379 55.7909 380.791 54 383 54H425C427.209 54 429 55.7909 429 58V100C429 102.209 427.209 104 425 104H383C380.791 104 379 102.209 379 100V58Z" fill="white"/>
<path d="M415.355 66.25C416.883 66.25 418.145 67.5117 418.145 69.1055V86.1055C418.145 87.6328 416.883 88.8945 415.355 88.8945H409.645V91.75H398.355V88.8945H392.645C391.117 88.8945 389.855 87.6328 389.855 86.1055V69.1055C389.855 67.5117 391.117 66.25 392.645 66.25H415.355ZM415.355 86.1055V69.1055H392.645V86.1055H415.355ZM395.5 73.6875V75.8125H406.855V73.6875H395.5ZM410.375 75.8125V77.6055H408.25V71.8945H410.375V73.6875H412.5V75.8125H410.375ZM401.145 79.332V81.457H412.5V79.332H401.145ZM397.625 83.25V81.457H395.5V79.332H397.625V77.6055H399.75V83.25H397.625Z" fill="#101840" fill-opacity="0.54"/>
<g clip-path="url(#clip2_1_2)">
<line x1="387.5" y1="119" x2="387.5" y2="104" stroke="#4741B5"/>
<line x1="387" y1="111.5" x2="421" y2="111.5" stroke="#4741B5"/>
<line x1="420.5" y1="119" x2="420.5" y2="104" stroke="#4741B5"/>
</g>
<path d="M398.951 130.285H399.928C400.22 130.285 400.475 130.246 400.694 130.169C400.913 130.087 401.093 129.973 401.234 129.827C401.366 129.7 401.466 129.542 401.535 129.355C401.608 129.164 401.644 128.959 401.644 128.74C401.644 128.503 401.61 128.291 401.542 128.104C401.478 127.918 401.382 127.758 401.255 127.626C401.127 127.503 400.965 127.407 400.769 127.339C400.578 127.271 400.357 127.236 400.106 127.236C399.883 127.236 399.675 127.271 399.484 127.339C399.297 127.403 399.135 127.496 398.999 127.619C398.857 127.742 398.746 127.89 398.664 128.063C398.586 128.237 398.548 128.43 398.548 128.645H396.914C396.914 128.248 396.994 127.883 397.153 127.551C397.313 127.218 397.534 126.929 397.816 126.683C398.099 126.441 398.431 126.252 398.814 126.115C399.202 125.979 399.625 125.91 400.086 125.91C400.555 125.91 400.986 125.972 401.378 126.095C401.774 126.213 402.111 126.391 402.389 126.628C402.672 126.869 402.891 127.166 403.046 127.517C403.201 127.868 403.278 128.275 403.278 128.74C403.278 128.945 403.246 129.15 403.182 129.355C403.123 129.561 403.032 129.759 402.909 129.95C402.786 130.137 402.631 130.312 402.444 130.477C402.257 130.641 402.038 130.78 401.788 130.894C402.084 130.994 402.335 131.126 402.54 131.29C402.749 131.45 402.92 131.63 403.052 131.83C403.185 132.035 403.28 132.256 403.34 132.493C403.399 132.726 403.428 132.967 403.428 133.218C403.428 133.683 403.342 134.097 403.169 134.462C403 134.822 402.768 135.125 402.471 135.371C402.171 135.622 401.815 135.813 401.405 135.945C400.999 136.073 400.56 136.137 400.086 136.137C399.657 136.137 399.245 136.077 398.848 135.959C398.452 135.84 398.103 135.663 397.802 135.426C397.502 135.189 397.26 134.897 397.078 134.551C396.9 134.2 396.811 133.792 396.811 133.327H398.445C398.445 133.546 398.484 133.749 398.561 133.936C398.643 134.118 398.759 134.273 398.91 134.4C399.056 134.533 399.229 134.635 399.429 134.708C399.634 134.781 399.86 134.817 400.106 134.817C400.37 134.817 400.607 134.783 400.817 134.715C401.031 134.642 401.211 134.535 401.357 134.394C401.498 134.261 401.605 134.097 401.678 133.901C401.756 133.701 401.795 133.473 401.795 133.218C401.795 132.931 401.751 132.685 401.665 132.479C401.578 132.274 401.453 132.104 401.289 131.967C401.125 131.835 400.926 131.737 400.694 131.673C400.466 131.604 400.211 131.57 399.928 131.57H398.951V130.285ZM410.863 132.452H412.114V133.778H410.863V136H409.229V133.778H404.922L404.881 132.773L409.181 126.047H410.863V132.452ZM406.549 132.452H409.229V128.234L409.037 128.59L406.549 132.452Z" fill="#4741B5"/>
<g clip-path="url(#clip3_1_2)">
<line x1="364" y1="62.5" x2="379" y2="62.5" stroke="#4741B5"/>
<line x1="371.5" y1="97" x2="371.5" y2="63" stroke="#4741B5"/>
<line x1="364" y1="95.5" x2="379" y2="95.5" stroke="#4741B5"/>
</g>
<path d="M346.113 78.2852H347.09C347.382 78.2852 347.637 78.2464 347.856 78.1689C348.075 78.0869 348.255 77.973 348.396 77.8271C348.528 77.6995 348.628 77.5423 348.697 77.3555C348.77 77.1641 348.806 76.959 348.806 76.7402C348.806 76.5033 348.772 76.2913 348.703 76.1045C348.64 75.9176 348.544 75.7581 348.416 75.626C348.289 75.5029 348.127 75.4072 347.931 75.3389C347.74 75.2705 347.519 75.2363 347.268 75.2363C347.045 75.2363 346.837 75.2705 346.646 75.3389C346.459 75.4027 346.297 75.4961 346.161 75.6191C346.019 75.7422 345.908 75.8903 345.826 76.0635C345.748 76.2367 345.709 76.4303 345.709 76.6445H344.076C344.076 76.248 344.155 75.8835 344.315 75.5508C344.474 75.2181 344.695 74.9287 344.978 74.6826C345.26 74.4411 345.593 74.252 345.976 74.1152C346.363 73.9785 346.787 73.9102 347.247 73.9102C347.717 73.9102 348.147 73.9717 348.539 74.0947C348.936 74.2132 349.273 74.391 349.551 74.6279C349.834 74.8695 350.052 75.1657 350.207 75.5166C350.362 75.8675 350.44 76.2754 350.44 76.7402C350.44 76.9453 350.408 77.1504 350.344 77.3555C350.285 77.5605 350.194 77.7588 350.071 77.9502C349.948 78.137 349.793 78.3125 349.606 78.4766C349.419 78.6406 349.2 78.7796 348.95 78.8936C349.246 78.9938 349.496 79.126 349.702 79.29C349.911 79.4495 350.082 79.6296 350.214 79.8301C350.346 80.0352 350.442 80.2562 350.501 80.4932C350.561 80.7256 350.59 80.9671 350.59 81.2178C350.59 81.6826 350.504 82.0973 350.33 82.4619C350.162 82.8219 349.929 83.125 349.633 83.3711C349.332 83.6217 348.977 83.8132 348.567 83.9453C348.161 84.0729 347.721 84.1367 347.247 84.1367C346.819 84.1367 346.407 84.0775 346.01 83.959C345.614 83.8405 345.265 83.6628 344.964 83.4258C344.663 83.1888 344.422 82.8971 344.24 82.5508C344.062 82.1999 343.973 81.792 343.973 81.3271H345.607C345.607 81.5459 345.646 81.7487 345.723 81.9355C345.805 82.1178 345.921 82.2728 346.072 82.4004C346.217 82.5326 346.391 82.6351 346.591 82.708C346.796 82.7809 347.022 82.8174 347.268 82.8174C347.532 82.8174 347.769 82.7832 347.979 82.7148C348.193 82.6419 348.373 82.5348 348.519 82.3936C348.66 82.2614 348.767 82.0973 348.84 81.9014C348.918 81.7008 348.956 81.473 348.956 81.2178C348.956 80.9307 348.913 80.6846 348.827 80.4795C348.74 80.2744 348.615 80.1035 348.451 79.9668C348.286 79.8346 348.088 79.7367 347.856 79.6729C347.628 79.6045 347.373 79.5703 347.09 79.5703H346.113V78.2852ZM358.024 80.4521H359.275V81.7783H358.024V84H356.391V81.7783H352.084L352.043 80.7734L356.343 74.0469H358.024V80.4521ZM353.711 80.4521H356.391V76.2344L356.199 76.5898L353.711 80.4521Z" fill="#4741B5"/>
<g clip-path="url(#clip4_1_2)">
<line x1="91.5" y1="110" x2="91.5" y2="95" stroke="#4741B5"/>
<line x1="91" y1="102.5" x2="107" y2="102.5" stroke="#4741B5"/>
<line x1="106.5" y1="110" x2="106.5" y2="95" stroke="#4741B5"/>
</g>
<path d="M96.6442 127H94.9968V119.07L92.447 120.007V118.564L96.5417 117.047H96.6442V127ZM105.37 116.999V118.387H105.261C104.719 118.387 104.247 118.462 103.846 118.612C103.45 118.758 103.115 118.963 102.841 119.228C102.563 119.492 102.347 119.809 102.192 120.178C102.041 120.547 101.948 120.943 101.911 121.367C102.021 121.244 102.148 121.126 102.294 121.012C102.44 120.893 102.602 120.788 102.78 120.697C102.948 120.611 103.135 120.542 103.34 120.492C103.545 120.438 103.762 120.41 103.99 120.41C104.473 120.41 104.892 120.501 105.247 120.684C105.607 120.866 105.904 121.112 106.136 121.422C106.373 121.732 106.546 122.087 106.656 122.488C106.77 122.889 106.826 123.306 106.826 123.739C106.826 124.213 106.754 124.658 106.608 125.072C106.466 125.482 106.259 125.84 105.986 126.146C105.708 126.455 105.368 126.699 104.967 126.877C104.571 127.05 104.117 127.137 103.607 127.137C103.083 127.137 102.616 127.036 102.205 126.836C101.795 126.635 101.449 126.364 101.166 126.022C100.866 125.667 100.638 125.25 100.483 124.771C100.328 124.288 100.25 123.78 100.25 123.247V122.57C100.25 121.768 100.353 121.005 100.558 120.28C100.768 119.551 101.114 118.924 101.597 118.4C102.007 117.949 102.513 117.603 103.115 117.361C103.716 117.12 104.404 116.999 105.179 116.999H105.37ZM103.586 121.736C103.39 121.736 103.203 121.766 103.026 121.825C102.848 121.884 102.684 121.966 102.534 122.071C102.397 122.176 102.274 122.297 102.164 122.434C102.055 122.57 101.964 122.723 101.891 122.892V123.397C101.891 123.794 101.934 124.143 102.021 124.443C102.112 124.744 102.235 124.995 102.39 125.195C102.545 125.396 102.725 125.549 102.93 125.653C103.135 125.758 103.354 125.811 103.586 125.811C103.841 125.811 104.069 125.76 104.27 125.66C104.47 125.555 104.641 125.414 104.783 125.236C104.924 125.054 105.031 124.84 105.104 124.594C105.177 124.343 105.213 124.072 105.213 123.78C105.213 123.502 105.177 123.24 105.104 122.994C105.035 122.743 104.933 122.525 104.796 122.338C104.659 122.151 104.489 122.005 104.284 121.9C104.083 121.791 103.851 121.736 103.586 121.736Z" fill="#4741B5"/>
<g clip-path="url(#clip5_1_2)">
<line x1="68" y1="71.5" x2="83" y2="71.5" stroke="#4741B5"/>
<line x1="75.5" y1="88" x2="75.5" y2="72" stroke="#4741B5"/>
<line x1="68" y1="86.5" x2="83" y2="86.5" stroke="#4741B5"/>
</g>
<path d="M52.806 84H51.1586V76.0703L48.6087 77.0068V75.5645L52.7035 74.0469H52.806V84ZM61.5322 73.999V75.3867H61.4229C60.8805 75.3867 60.4089 75.4619 60.0078 75.6123C59.6113 75.7581 59.2764 75.9632 59.0029 76.2275C58.7249 76.4919 58.5085 76.8086 58.3535 77.1777C58.2031 77.5469 58.1097 77.9434 58.0732 78.3672C58.1826 78.2441 58.3102 78.1257 58.4561 78.0117C58.6019 77.8932 58.7637 77.7884 58.9414 77.6973C59.11 77.6107 59.2969 77.5423 59.502 77.4922C59.707 77.4375 59.9235 77.4102 60.1514 77.4102C60.6344 77.4102 61.0537 77.5013 61.4092 77.6836C61.7692 77.8659 62.0654 78.112 62.2979 78.4219C62.5348 78.7318 62.708 79.0872 62.8174 79.4883C62.9313 79.8893 62.9883 80.3063 62.9883 80.7393C62.9883 81.2132 62.9154 81.6576 62.7695 82.0723C62.6283 82.4824 62.4209 82.8402 62.1475 83.1455C61.8695 83.4554 61.5299 83.6992 61.1289 83.877C60.7324 84.0501 60.279 84.1367 59.7686 84.1367C59.2445 84.1367 58.7773 84.0365 58.3672 83.8359C57.957 83.6354 57.6107 83.3643 57.3281 83.0225C57.0273 82.667 56.7995 82.25 56.6445 81.7715C56.4896 81.2884 56.4121 80.7803 56.4121 80.2471V79.5703C56.4121 78.7682 56.5146 78.0049 56.7197 77.2803C56.9294 76.5511 57.2757 75.9245 57.7588 75.4004C58.1689 74.9492 58.6748 74.6029 59.2764 74.3613C59.8779 74.1198 60.5661 73.999 61.3408 73.999H61.5322ZM59.748 78.7363C59.5521 78.7363 59.3652 78.766 59.1875 78.8252C59.0098 78.8844 58.8457 78.9665 58.6953 79.0713C58.5586 79.1761 58.4355 79.2969 58.3262 79.4336C58.2168 79.5703 58.1257 79.723 58.0527 79.8916V80.3975C58.0527 80.7939 58.096 81.1426 58.1826 81.4434C58.2738 81.7441 58.3968 81.9948 58.5518 82.1953C58.7067 82.3958 58.8867 82.5485 59.0918 82.6533C59.2969 82.7581 59.5156 82.8105 59.748 82.8105C60.0033 82.8105 60.2311 82.7604 60.4316 82.6602C60.6322 82.5553 60.8031 82.4141 60.9443 82.2363C61.0856 82.054 61.1927 81.8398 61.2656 81.5938C61.3385 81.3431 61.375 81.0719 61.375 80.7803C61.375 80.5023 61.3385 80.2402 61.2656 79.9941C61.1973 79.7435 61.0947 79.5247 60.958 79.3379C60.8213 79.151 60.6504 79.0052 60.4453 78.9004C60.2448 78.791 60.0124 78.7363 59.748 78.7363Z" fill="#4741B5"/>
<defs>
<clipPath id="clip0_1_2">
<rect width="20" height="15" fill="white" transform="translate(237 97)"/>
</clipPath>
<clipPath id="clip1_1_2">
<rect width="15" height="20" fill="white" transform="translate(214 69)"/>
</clipPath>
<clipPath id="clip2_1_2">
<rect width="34" height="15" fill="white" transform="translate(387 104)"/>
</clipPath>
<clipPath id="clip3_1_2">
<rect width="15" height="34" fill="white" transform="translate(364 62)"/>
</clipPath>
<clipPath id="clip4_1_2">
<rect width="16" height="15" fill="white" transform="translate(91 95)"/>
</clipPath>
<clipPath id="clip5_1_2">
<rect width="15" height="16" fill="white" transform="translate(68 71)"/>
</clipPath>
</defs>
</svg>
