<svg width="1236" height="406" viewBox="0 0 1236 406" fill="none" xmlns="http://www.w3.org/2000/svg">
<path d="M194.59 299.266C252.39 299.266 299.246 252.41 299.246 194.61C299.246 136.81 252.39 89.9545 194.59 89.9545C136.79 89.9545 89.9346 136.81 89.9346 194.61C89.9346 252.41 136.79 299.266 194.59 299.266Z" fill="#091431"/>
<path d="M200.84 173.945C200.84 189.97 193.347 198.312 184.095 198.312C174.844 198.312 167.351 189.97 167.351 173.945C167.351 157.921 174.844 149.578 184.095 149.578C193.347 149.578 200.84 157.921 200.84 173.945ZM263.12 173.945C263.12 189.97 255.627 198.312 246.375 198.312C237.124 198.312 229.64 189.97 229.64 173.945C229.64 157.921 237.134 149.578 246.385 149.578C255.636 149.578 263.13 157.921 263.13 173.945H263.12Z" fill="white"/>
<path d="M34.4771 133.623C52.7003 133.623 67.4732 118.85 67.4732 100.627C67.4732 82.404 52.7003 67.6311 34.4771 67.6311C16.2538 67.6311 1.48096 82.404 1.48096 100.627C1.48096 118.85 16.2538 133.623 34.4771 133.623Z" fill="url(#paint0_linear_269_2)"/>
<path d="M321.786 94.1308C340.009 94.1308 354.782 79.3579 354.782 61.1347C354.782 42.9114 340.009 28.1385 321.786 28.1385C303.563 28.1385 288.79 42.9114 288.79 61.1347C288.79 79.3579 303.563 94.1308 321.786 94.1308Z" fill="url(#paint1_linear_269_2)"/>
<path d="M247.737 405.136C265.961 405.136 280.733 390.363 280.733 372.139C280.733 353.916 265.961 339.143 247.737 339.143C229.514 339.143 214.741 353.916 214.741 372.139C214.741 390.363 229.514 405.136 247.737 405.136Z" fill="url(#paint2_linear_269_2)"/>
<path d="M194.995 0C141.443 0 92.8571 21.7012 57.5803 56.7707C54.4801 59.8511 55.0133 64.9259 58.5479 67.4831C58.6565 67.5621 58.7651 67.6411 58.8737 67.7201C61.7369 69.8428 65.6862 69.5762 68.2137 67.0684C100.795 34.7832 145.609 14.8098 194.995 14.8098C226.234 14.8098 255.636 22.7971 281.277 36.8467C284.327 38.5152 288.089 37.755 290.311 35.0695C290.38 34.9905 290.439 34.9115 290.508 34.8325C293.421 31.3671 292.522 26.1145 288.553 23.9424C260.77 8.67851 228.87 0 194.995 0ZM194.995 375.18C95.6414 375.18 14.8098 294.349 14.8098 194.995C14.8098 178.181 17.1201 161.9 21.4544 146.459C22.4121 143.042 20.7534 139.468 17.5249 137.987C17.3669 137.918 17.2089 137.839 17.051 137.77C13.1116 135.904 8.41194 138.135 7.22716 142.332C2.51766 159.086 0 176.749 0 194.995C0 302.514 87.4763 389.99 194.995 389.99C197.019 389.99 199.043 389.96 201.057 389.901C205.51 389.763 208.837 385.656 207.86 381.312C207.82 381.124 207.781 380.936 207.741 380.759C207.03 377.402 204.039 374.993 200.603 375.101C198.747 375.161 196.881 375.19 195.005 375.19L194.995 375.18ZM349.856 91.1392C349.787 91.2083 349.708 91.2774 349.638 91.3465C347.071 93.7062 346.509 97.5074 348.345 100.469C365.357 127.966 375.19 160.35 375.19 194.995C375.19 259.941 340.644 316.968 288.978 348.681C286.016 350.497 284.782 354.151 286.036 357.389C286.105 357.567 286.174 357.734 286.233 357.912C287.773 362.059 292.809 363.698 296.58 361.388C352.571 327.078 390 265.322 390 194.995C390 157.428 379.317 122.309 360.835 92.5017C358.455 88.661 353.163 88.0489 349.866 91.1392H349.856Z" fill="url(#paint3_linear_269_2)"/>
<path d="M472.675 266.172C469.221 266.172 466.458 265.395 464.386 263.84C462.313 262.286 461.104 260.213 460.759 257.623C460.413 255.032 460.931 252.096 462.313 248.815L532.518 91.306C534.245 87.161 536.404 84.225 538.995 82.4979C541.758 80.7709 544.781 79.9073 548.062 79.9073C551.171 79.9073 554.02 80.7709 556.611 82.4979C559.374 84.225 561.619 87.161 563.347 91.306L633.552 248.815C635.106 252.096 635.711 255.118 635.365 257.882C635.02 260.472 633.897 262.545 631.998 264.099C630.098 265.481 627.421 266.172 623.967 266.172C620.167 266.172 617.145 265.222 614.9 263.322C612.654 261.422 610.668 258.486 608.941 254.514L590.807 212.546L602.983 219.8H492.623L504.54 212.546L486.665 254.514C484.938 258.659 483.038 261.681 480.965 263.581C478.893 265.308 476.13 266.172 472.675 266.172ZM547.544 111.513L508.426 204.256L501.949 198.039H593.398L587.439 204.256L548.062 111.513H547.544ZM722.321 266.69C711.958 266.69 703.236 264.876 696.155 261.25C689.074 257.623 683.807 252.269 680.353 245.188C676.899 238.107 675.172 229.471 675.172 219.282V158.144H659.628C656.174 158.144 653.497 157.28 651.597 155.553C649.697 153.653 648.747 151.149 648.747 148.04C648.747 144.759 649.697 142.255 651.597 140.527C653.497 138.8 656.174 137.937 659.628 137.937H675.172V111.254C675.172 106.936 676.294 103.655 678.539 101.409C680.957 99.1642 684.239 98.0416 688.384 98.0416C692.529 98.0416 695.724 99.1642 697.969 101.409C700.214 103.655 701.337 106.936 701.337 111.254V137.937H731.647C735.101 137.937 737.778 138.8 739.678 140.527C741.577 142.255 742.527 144.759 742.527 148.04C742.527 151.149 741.577 153.653 739.678 155.553C737.778 157.28 735.101 158.144 731.647 158.144H701.337V217.209C701.337 226.363 703.236 233.271 707.036 237.934C711.008 242.597 717.398 244.929 726.206 244.929C729.315 244.929 731.992 244.67 734.237 244.152C736.655 243.461 738.641 243.029 740.196 242.856C742.095 242.856 743.65 243.547 744.859 244.929C746.068 246.138 746.672 248.556 746.672 252.182C746.672 254.773 746.154 257.191 745.118 259.436C744.254 261.681 742.614 263.149 740.196 263.84C738.123 264.531 735.274 265.135 731.647 265.654C728.193 266.344 725.084 266.69 722.321 266.69ZM822.241 266.69C811.878 266.69 803.157 264.876 796.076 261.25C788.995 257.623 783.727 252.269 780.273 245.188C776.819 238.107 775.092 229.471 775.092 219.282V158.144H759.548C756.094 158.144 753.417 157.28 751.517 155.553C749.618 153.653 748.668 151.149 748.668 148.04C748.668 144.759 749.618 142.255 751.517 140.527C753.417 138.8 756.094 137.937 759.548 137.937H775.092V111.254C775.092 106.936 776.215 103.655 778.46 101.409C780.878 99.1642 784.159 98.0416 788.304 98.0416C792.449 98.0416 795.644 99.1642 797.889 101.409C800.134 103.655 801.257 106.936 801.257 111.254V137.937H831.567C835.021 137.937 837.698 138.8 839.598 140.527C841.498 142.255 842.448 144.759 842.448 148.04C842.448 151.149 841.498 153.653 839.598 155.553C837.698 157.28 835.021 158.144 831.567 158.144H801.257V217.209C801.257 226.363 803.157 233.271 806.956 237.934C810.929 242.597 817.319 244.929 826.127 244.929C829.236 244.929 831.912 244.67 834.158 244.152C836.576 243.461 838.562 243.029 840.116 242.856C842.016 242.856 843.57 243.547 844.779 244.929C845.988 246.138 846.593 248.556 846.593 252.182C846.593 254.773 846.074 257.191 845.038 259.436C844.175 261.681 842.534 263.149 840.116 263.84C838.044 264.531 835.194 265.135 831.567 265.654C828.113 266.344 825.004 266.69 822.241 266.69ZM926.992 266.69C914.212 266.69 903.159 264.013 893.833 258.659C884.679 253.305 877.512 245.706 872.331 235.862C867.149 226.017 864.559 214.446 864.559 201.148C864.559 190.958 866.027 181.891 868.963 173.946C871.899 166.002 876.044 159.18 881.398 153.48C886.924 147.608 893.487 143.204 901.086 140.268C908.858 137.16 917.493 135.605 926.992 135.605C939.6 135.605 950.48 138.282 959.634 143.636C968.96 148.99 976.214 156.589 981.395 166.433C986.576 176.105 989.167 187.676 989.167 201.148C989.167 211.165 987.699 220.232 984.763 228.349C981.827 236.466 977.595 243.374 972.069 249.074C966.715 254.773 960.152 259.177 952.38 262.286C944.781 265.222 936.319 266.69 926.992 266.69ZM926.992 246.483C934.073 246.483 940.291 244.756 945.645 241.302C950.999 237.848 955.144 232.753 958.08 226.017C961.188 219.282 962.743 210.992 962.743 201.148C962.743 186.295 959.461 175.069 952.898 167.47C946.336 159.871 937.7 156.071 926.992 156.071C919.739 156.071 913.435 157.798 908.081 161.252C902.727 164.534 898.496 169.542 895.387 176.278C892.451 183.013 890.983 191.303 890.983 201.148C890.983 215.828 894.264 227.054 900.827 234.825C907.39 242.597 916.112 246.483 926.992 246.483ZM1042.39 266.172C1038.24 266.172 1035.05 265.049 1032.8 262.804C1030.56 260.386 1029.43 257.105 1029.43 252.96V149.335C1029.43 145.018 1030.56 141.736 1032.8 139.491C1035.05 137.246 1038.15 136.123 1042.13 136.123C1046.27 136.123 1049.38 137.246 1051.45 139.491C1053.7 141.736 1054.82 145.018 1054.82 149.335V170.578L1051.97 164.879C1055.42 155.726 1060.78 148.558 1068.03 143.377C1075.29 138.196 1084.01 135.605 1094.2 135.605C1104.73 135.605 1113.28 138.11 1119.84 143.118C1126.41 148.127 1130.9 155.812 1133.32 166.174H1129.69C1132.97 156.676 1138.58 149.249 1146.53 143.895C1154.47 138.369 1163.71 135.605 1174.25 135.605C1183.92 135.605 1191.86 137.505 1198.08 141.305C1204.3 144.931 1208.96 150.544 1212.07 158.144C1215.18 165.57 1216.73 174.982 1216.73 186.381V252.96C1216.73 257.105 1215.52 260.386 1213.11 262.804C1210.86 265.049 1207.67 266.172 1203.52 266.172C1199.38 266.172 1196.18 265.049 1193.94 262.804C1191.69 260.386 1190.57 257.105 1190.57 252.96V187.676C1190.57 176.969 1188.67 169.11 1184.87 164.102C1181.24 159.093 1175.2 156.589 1166.73 156.589C1157.24 156.589 1149.72 159.871 1144.2 166.433C1138.67 172.996 1135.91 182.063 1135.91 193.635V252.96C1135.91 257.105 1134.78 260.386 1132.54 262.804C1130.29 265.049 1127.1 266.172 1122.95 266.172C1118.81 266.172 1115.53 265.049 1113.11 262.804C1110.86 260.386 1109.74 257.105 1109.74 252.96V187.676C1109.74 176.969 1107.93 169.11 1104.3 164.102C1100.67 159.093 1094.63 156.589 1086.17 156.589C1076.67 156.589 1069.16 159.871 1063.63 166.433C1058.27 172.996 1055.6 182.063 1055.6 193.635V252.96C1055.6 261.768 1051.19 266.172 1042.39 266.172Z" fill="#091431"/>
<path d="M569.4 372.777C568.048 372.777 567.006 372.411 566.274 371.679C565.542 370.947 565.176 369.905 565.176 368.554V317.445C565.176 316.094 565.542 315.052 566.274 314.32C567.006 313.588 568.048 313.222 569.4 313.222H585.704C595.447 313.222 602.937 315.784 608.174 320.909C613.468 325.978 616.115 333.327 616.115 342.957C616.115 347.744 615.439 351.996 614.088 355.713C612.736 359.43 610.765 362.556 608.174 365.09C605.584 367.568 602.402 369.483 598.628 370.834C594.911 372.13 590.603 372.777 585.704 372.777H569.4ZM573.032 366.104H585.197C589.026 366.104 592.349 365.625 595.165 364.668C597.981 363.71 600.318 362.274 602.176 360.359C604.091 358.445 605.527 356.051 606.485 353.179C607.442 350.25 607.921 346.843 607.921 342.957C607.921 335.242 606.006 329.469 602.176 325.64C598.403 321.81 592.743 319.895 585.197 319.895H573.032V366.104ZM646.279 373.538C641.83 373.538 638 372.693 634.79 371.003C631.636 369.258 629.187 366.808 627.441 363.654C625.695 360.444 624.822 356.671 624.822 352.334C624.822 348.054 625.667 344.309 627.356 341.099C629.102 337.889 631.467 335.383 634.452 333.58C637.493 331.778 640.957 330.877 644.843 330.877C647.602 330.877 650.08 331.356 652.277 332.313C654.529 333.214 656.444 334.538 658.021 336.284C659.598 338.029 660.781 340.17 661.569 342.704C662.414 345.182 662.836 347.998 662.836 351.151C662.836 352.053 662.555 352.756 661.992 353.263C661.485 353.714 660.724 353.939 659.711 353.939H630.82V349.04H657.768L656.332 350.222C656.332 347.294 655.881 344.816 654.98 342.788C654.135 340.705 652.868 339.128 651.179 338.058C649.545 336.988 647.49 336.453 645.012 336.453C642.309 336.453 640 337.1 638.085 338.396C636.17 339.635 634.706 341.409 633.692 343.718C632.678 345.97 632.171 348.589 632.171 351.574V352.081C632.171 357.149 633.382 360.979 635.804 363.569C638.226 366.16 641.717 367.455 646.279 367.455C648.081 367.455 649.911 367.23 651.77 366.78C653.685 366.329 655.515 365.512 657.261 364.33C658.106 363.823 658.866 363.598 659.542 363.654C660.274 363.654 660.865 363.879 661.316 364.33C661.766 364.724 662.048 365.231 662.16 365.85C662.273 366.413 662.189 367.033 661.907 367.709C661.625 368.385 661.09 368.976 660.302 369.483C658.444 370.778 656.219 371.792 653.628 372.524C651.094 373.2 648.644 373.538 646.279 373.538ZM686.589 373.538C684.055 373.538 681.493 373.256 678.902 372.693C676.368 372.073 673.974 371.032 671.721 369.567C671.102 369.173 670.651 368.694 670.37 368.131C670.145 367.512 670.06 366.92 670.116 366.357C670.229 365.738 670.482 365.203 670.877 364.752C671.271 364.302 671.75 364.048 672.313 363.992C672.932 363.879 673.58 364.02 674.256 364.414C676.452 365.653 678.564 366.526 680.591 367.033C682.675 367.54 684.731 367.793 686.758 367.793C689.856 367.793 692.193 367.23 693.77 366.104C695.347 364.977 696.135 363.485 696.135 361.626C696.135 360.05 695.6 358.839 694.53 357.994C693.516 357.093 691.911 356.417 689.715 355.967L681.859 354.362C678.367 353.573 675.72 352.278 673.918 350.476C672.172 348.617 671.299 346.252 671.299 343.38C671.299 340.845 671.975 338.649 673.327 336.79C674.734 334.876 676.677 333.411 679.155 332.398C681.633 331.384 684.477 330.877 687.687 330.877C690.165 330.877 692.503 331.215 694.699 331.891C696.952 332.51 698.979 333.468 700.781 334.763C701.457 335.157 701.879 335.664 702.048 336.284C702.274 336.847 702.302 337.438 702.133 338.058C702.02 338.621 701.767 339.1 701.373 339.494C700.978 339.888 700.472 340.141 699.852 340.254C699.233 340.31 698.557 340.141 697.825 339.747C696.191 338.621 694.502 337.832 692.756 337.382C691.067 336.875 689.377 336.622 687.687 336.622C684.646 336.622 682.337 337.213 680.76 338.396C679.24 339.578 678.48 341.127 678.48 343.042C678.48 344.506 678.93 345.717 679.831 346.674C680.789 347.632 682.281 348.336 684.308 348.786L692.165 350.391C695.825 351.18 698.585 352.447 700.443 354.193C702.302 355.882 703.231 358.191 703.231 361.12C703.231 364.949 701.711 367.99 698.669 370.243C695.685 372.439 691.658 373.538 686.589 373.538ZM717.034 373.2C715.852 373.2 714.922 372.834 714.247 372.102C713.571 371.369 713.233 370.356 713.233 369.06V335.354C713.233 334.003 713.571 332.989 714.247 332.313C714.922 331.581 715.852 331.215 717.034 331.215C718.273 331.215 719.231 331.581 719.907 332.313C720.582 332.989 720.92 334.003 720.92 335.354V369.06C720.92 370.356 720.582 371.369 719.907 372.102C719.287 372.834 718.33 373.2 717.034 373.2ZM717.034 322.092C715.514 322.092 714.303 321.697 713.402 320.909C712.557 320.064 712.135 318.966 712.135 317.614C712.135 316.15 712.557 315.052 713.402 314.32C714.303 313.531 715.514 313.137 717.034 313.137C718.668 313.137 719.878 313.531 720.667 314.32C721.512 315.052 721.934 316.15 721.934 317.614C721.934 318.966 721.512 320.064 720.667 320.909C719.878 321.697 718.668 322.092 717.034 322.092ZM737.081 373.369C735.898 373.369 734.969 373.031 734.293 372.355C733.617 371.679 733.28 370.694 733.28 369.398V334.932C733.28 333.637 733.617 332.679 734.293 332.06C734.969 331.384 735.898 331.046 737.081 331.046C738.264 331.046 739.165 331.384 739.784 332.06C740.46 332.679 740.798 333.637 740.798 334.932V341.859L739.869 340.592C741.051 337.382 742.966 334.96 745.613 333.327C748.316 331.694 751.386 330.877 754.821 330.877C758.144 330.877 760.875 331.468 763.015 332.651C765.155 333.834 766.76 335.636 767.83 338.058C768.9 340.479 769.435 343.549 769.435 347.266V369.398C769.435 370.694 769.097 371.679 768.422 372.355C767.802 373.031 766.873 373.369 765.634 373.369C764.395 373.369 763.438 373.031 762.762 372.355C762.086 371.679 761.748 370.694 761.748 369.398V347.688C761.748 344.027 761.044 341.352 759.636 339.663C758.228 337.973 755.975 337.128 752.878 337.128C749.274 337.128 746.373 338.255 744.177 340.507C742.037 342.704 740.967 345.689 740.967 349.462V369.398C740.967 372.045 739.672 373.369 737.081 373.369ZM800.123 388.743C797.081 388.743 794.125 388.405 791.253 387.73C788.437 387.054 785.874 386.012 783.565 384.604C782.833 384.153 782.326 383.618 782.045 382.999C781.819 382.436 781.763 381.844 781.876 381.225C782.045 380.605 782.326 380.042 782.721 379.535C783.171 379.085 783.678 378.775 784.241 378.606C784.861 378.494 785.48 378.634 786.1 379.029C788.578 380.437 790.943 381.394 793.196 381.901C795.448 382.408 797.588 382.661 799.616 382.661C803.614 382.661 806.599 381.619 808.57 379.535C810.598 377.508 811.611 374.523 811.611 370.581V361.458H812.372C811.583 364.611 809.809 367.117 807.05 368.976C804.346 370.834 801.193 371.764 797.588 371.764C793.871 371.764 790.633 370.919 787.874 369.229C785.114 367.484 782.974 365.09 781.453 362.049C779.933 358.951 779.173 355.375 779.173 351.32C779.173 348.223 779.595 345.435 780.44 342.957C781.341 340.423 782.58 338.283 784.157 336.537C785.79 334.735 787.733 333.355 789.985 332.398C792.238 331.384 794.772 330.877 797.588 330.877C801.249 330.877 804.431 331.806 807.134 333.665C809.837 335.523 811.583 338.029 812.372 341.183L811.442 342.366V334.932C811.442 333.637 811.78 332.679 812.456 332.06C813.132 331.384 814.089 331.046 815.328 331.046C816.511 331.046 817.44 331.384 818.116 332.06C818.792 332.679 819.13 333.637 819.13 334.932V369.567C819.13 375.931 817.497 380.718 814.23 383.928C811.02 387.138 806.318 388.743 800.123 388.743ZM799.278 365.681C801.812 365.681 803.98 365.118 805.783 363.992C807.641 362.809 809.049 361.148 810.006 359.008C811.02 356.811 811.527 354.249 811.527 351.32C811.527 346.871 810.429 343.38 808.232 340.845C806.036 338.255 803.051 336.959 799.278 336.959C796.744 336.959 794.547 337.551 792.689 338.733C790.887 339.86 789.479 341.493 788.465 343.633C787.451 345.773 786.944 348.336 786.944 351.32C786.944 355.713 788.043 359.205 790.239 361.795C792.492 364.386 795.505 365.681 799.278 365.681ZM874.004 373.538C871.357 373.538 868.795 373.312 866.317 372.862C863.839 372.468 861.502 371.848 859.305 371.003C857.109 370.159 855.138 369.117 853.392 367.878C852.66 367.371 852.125 366.751 851.787 366.019C851.505 365.287 851.421 364.583 851.534 363.907C851.703 363.175 852.012 362.556 852.463 362.049C852.97 361.542 853.561 361.232 854.237 361.12C854.913 361.007 855.645 361.232 856.433 361.795C859.024 363.541 861.727 364.808 864.543 365.597C867.415 366.385 870.569 366.78 874.004 366.78C878.96 366.78 882.593 365.878 884.902 364.076C887.267 362.274 888.45 359.909 888.45 356.98C888.45 354.559 887.605 352.672 885.915 351.32C884.226 349.912 881.382 348.814 877.383 348.026L868.429 346.167C863.135 345.041 859.165 343.183 856.518 340.592C853.927 338.001 852.632 334.538 852.632 330.201C852.632 327.554 853.167 325.161 854.237 323.021C855.307 320.824 856.827 318.938 858.799 317.361C860.77 315.784 863.079 314.573 865.726 313.728C868.429 312.884 871.414 312.461 874.68 312.461C878.172 312.461 881.438 312.94 884.479 313.897C887.577 314.855 890.365 316.263 892.843 318.121C893.518 318.628 893.969 319.248 894.194 319.98C894.419 320.656 894.448 321.331 894.279 322.007C894.166 322.683 893.856 323.246 893.349 323.697C892.899 324.147 892.307 324.401 891.575 324.457C890.9 324.513 890.139 324.26 889.295 323.697C887.042 322.12 884.733 320.993 882.367 320.318C880.002 319.586 877.412 319.219 874.596 319.219C871.723 319.219 869.217 319.67 867.077 320.571C864.994 321.472 863.36 322.739 862.178 324.372C861.051 325.949 860.488 327.808 860.488 329.948C860.488 332.539 861.277 334.566 862.853 336.03C864.43 337.494 867.077 338.621 870.794 339.409L879.664 341.183C885.296 342.366 889.463 344.196 892.167 346.674C894.926 349.096 896.306 352.362 896.306 356.473C896.306 359.064 895.771 361.401 894.701 363.485C893.687 365.569 892.223 367.371 890.308 368.891C888.393 370.356 886.056 371.51 883.297 372.355C880.537 373.143 877.44 373.538 874.004 373.538ZM914.581 388.574C913.68 388.574 912.919 388.321 912.3 387.814C911.737 387.364 911.399 386.716 911.286 385.871C911.23 385.083 911.399 384.238 911.793 383.337L917.537 370.328V373.538L901.571 336.368C901.177 335.411 901.036 334.538 901.149 333.749C901.262 332.961 901.628 332.313 902.247 331.806C902.923 331.3 903.824 331.046 904.95 331.046C905.908 331.046 906.668 331.271 907.231 331.722C907.794 332.172 908.329 332.961 908.836 334.087L922.099 366.78H919.734L933.25 334.087C933.7 332.961 934.235 332.172 934.855 331.722C935.474 331.271 936.319 331.046 937.389 331.046C938.347 331.046 939.079 331.3 939.586 331.806C940.149 332.313 940.487 332.961 940.599 333.749C940.712 334.538 940.543 335.383 940.092 336.284L918.804 385.533C918.241 386.716 917.65 387.504 917.03 387.899C916.467 388.349 915.651 388.574 914.581 388.574ZM962.127 373.538C959.593 373.538 957.03 373.256 954.439 372.693C951.905 372.073 949.512 371.032 947.259 369.567C946.64 369.173 946.189 368.694 945.907 368.131C945.682 367.512 945.598 366.92 945.654 366.357C945.767 365.738 946.02 365.203 946.414 364.752C946.808 364.302 947.287 364.048 947.85 363.992C948.47 363.879 949.117 364.02 949.793 364.414C951.99 365.653 954.102 366.526 956.129 367.033C958.213 367.54 960.268 367.793 962.296 367.793C965.393 367.793 967.73 367.23 969.307 366.104C970.884 364.977 971.673 363.485 971.673 361.626C971.673 360.05 971.138 358.839 970.068 357.994C969.054 357.093 967.449 356.417 965.252 355.967L957.396 354.362C953.904 353.573 951.258 352.278 949.455 350.476C947.71 348.617 946.837 346.252 946.837 343.38C946.837 340.845 947.512 338.649 948.864 336.79C950.272 334.876 952.215 333.411 954.693 332.398C957.171 331.384 960.015 330.877 963.225 330.877C965.703 330.877 968.04 331.215 970.237 331.891C972.489 332.51 974.517 333.468 976.319 334.763C976.995 335.157 977.417 335.664 977.586 336.284C977.811 336.847 977.839 337.438 977.67 338.058C977.558 338.621 977.304 339.1 976.91 339.494C976.516 339.888 976.009 340.141 975.39 340.254C974.77 340.31 974.094 340.141 973.362 339.747C971.729 338.621 970.039 337.832 968.294 337.382C966.604 336.875 964.915 336.622 963.225 336.622C960.184 336.622 957.875 337.213 956.298 338.396C954.777 339.578 954.017 341.127 954.017 343.042C954.017 344.506 954.468 345.717 955.369 346.674C956.326 347.632 957.819 348.336 959.846 348.786L967.702 350.391C971.363 351.18 974.122 352.447 975.981 354.193C977.839 355.882 978.769 358.191 978.769 361.12C978.769 364.949 977.248 367.99 974.207 370.243C971.222 372.439 967.195 373.538 962.127 373.538ZM1005.42 373.538C1002.1 373.538 999.312 372.946 997.059 371.764C994.863 370.581 993.201 368.863 992.075 366.611C991.005 364.358 990.47 361.598 990.47 358.332V337.551H985.063C984.05 337.551 983.261 337.297 982.698 336.79C982.135 336.227 981.853 335.495 981.853 334.594C981.853 333.637 982.135 332.905 982.698 332.398C983.261 331.891 984.05 331.637 985.063 331.637H990.47V322.43C990.47 321.134 990.808 320.177 991.484 319.557C992.159 318.882 993.117 318.544 994.356 318.544C995.595 318.544 996.524 318.882 997.144 319.557C997.819 320.177 998.157 321.134 998.157 322.43V331.637H1008.38C1009.45 331.637 1010.27 331.891 1010.83 332.398C1011.39 332.905 1011.67 333.637 1011.67 334.594C1011.67 335.495 1011.39 336.227 1010.83 336.79C1010.27 337.297 1009.45 337.551 1008.38 337.551H998.157V357.656C998.157 360.754 998.805 363.091 1000.1 364.668C1001.4 366.245 1003.54 367.033 1006.52 367.033C1007.59 367.033 1008.49 366.948 1009.22 366.78C1009.96 366.554 1010.6 366.442 1011.17 366.442C1011.67 366.385 1012.1 366.554 1012.43 366.948C1012.83 367.343 1013.03 368.075 1013.03 369.145C1013.03 369.933 1012.88 370.665 1012.6 371.341C1012.38 371.961 1011.9 372.383 1011.17 372.608C1010.49 372.834 1009.59 373.031 1008.46 373.2C1007.34 373.425 1006.32 373.538 1005.42 373.538ZM1037.23 373.538C1032.78 373.538 1028.95 372.693 1025.74 371.003C1022.59 369.258 1020.14 366.808 1018.39 363.654C1016.64 360.444 1015.77 356.671 1015.77 352.334C1015.77 348.054 1016.62 344.309 1018.31 341.099C1020.05 337.889 1022.42 335.383 1025.4 333.58C1028.44 331.778 1031.91 330.877 1035.79 330.877C1038.55 330.877 1041.03 331.356 1043.23 332.313C1045.48 333.214 1047.39 334.538 1048.97 336.284C1050.55 338.029 1051.73 340.17 1052.52 342.704C1053.36 345.182 1053.79 347.998 1053.79 351.151C1053.79 352.053 1053.5 352.756 1052.94 353.263C1052.43 353.714 1051.67 353.939 1050.66 353.939H1021.77V349.04H1048.72L1047.28 350.222C1047.28 347.294 1046.83 344.816 1045.93 342.788C1045.09 340.705 1043.82 339.128 1042.13 338.058C1040.5 336.988 1038.44 336.453 1035.96 336.453C1033.26 336.453 1030.95 337.1 1029.03 338.396C1027.12 339.635 1025.66 341.409 1024.64 343.718C1023.63 345.97 1023.12 348.589 1023.12 351.574V352.081C1023.12 357.149 1024.33 360.979 1026.75 363.569C1029.18 366.16 1032.67 367.455 1037.23 367.455C1039.03 367.455 1040.86 367.23 1042.72 366.78C1044.63 366.329 1046.46 365.512 1048.21 364.33C1049.06 363.823 1049.82 363.598 1050.49 363.654C1051.22 363.654 1051.82 363.879 1052.27 364.33C1052.72 364.724 1053 365.231 1053.11 365.85C1053.22 366.413 1053.14 367.033 1052.86 367.709C1052.58 368.385 1052.04 368.976 1051.25 369.483C1049.39 370.778 1047.17 371.792 1044.58 372.524C1042.04 373.2 1039.59 373.538 1037.23 373.538ZM1067.32 373.369C1066.13 373.369 1065.21 373.031 1064.53 372.355C1063.85 371.679 1063.52 370.694 1063.52 369.398V334.932C1063.52 333.637 1063.85 332.679 1064.53 332.06C1065.21 331.384 1066.13 331.046 1067.32 331.046C1068.5 331.046 1069.4 331.384 1070.02 332.06C1070.7 332.679 1071.03 333.637 1071.03 334.932V342.112L1070.11 340.592C1071.18 337.494 1072.89 335.101 1075.26 333.411C1077.68 331.722 1080.55 330.877 1083.87 330.877C1087.37 330.877 1090.18 331.722 1092.32 333.411C1094.46 335.045 1095.9 337.551 1096.63 340.93H1095.45C1096.46 337.832 1098.26 335.383 1100.85 333.58C1103.5 331.778 1106.57 330.877 1110.06 330.877C1113.16 330.877 1115.69 331.497 1117.67 332.736C1119.69 333.918 1121.21 335.72 1122.23 338.142C1123.24 340.507 1123.75 343.549 1123.75 347.266V369.398C1123.75 370.694 1123.41 371.679 1122.73 372.355C1122.06 373.031 1121.13 373.369 1119.95 373.369C1118.71 373.369 1117.75 373.031 1117.07 372.355C1116.4 371.679 1116.06 370.694 1116.06 369.398V347.603C1116.06 343.999 1115.44 341.352 1114.2 339.663C1112.96 337.973 1110.88 337.128 1107.95 337.128C1104.74 337.128 1102.18 338.255 1100.26 340.507C1098.4 342.704 1097.48 345.745 1097.48 349.631V369.398C1097.48 370.694 1097.14 371.679 1096.46 372.355C1095.84 373.031 1094.91 373.369 1093.67 373.369C1092.44 373.369 1091.48 373.031 1090.8 372.355C1090.13 371.679 1089.79 370.694 1089.79 369.398V347.603C1089.79 343.999 1089.17 341.352 1087.93 339.663C1086.69 337.973 1084.61 337.128 1081.68 337.128C1078.47 337.128 1075.91 338.255 1073.99 340.507C1072.13 342.704 1071.2 345.745 1071.2 349.631V369.398C1071.2 372.045 1069.91 373.369 1067.32 373.369Z" fill="#091431"/>
<defs>
<linearGradient id="paint0_linear_269_2" x1="34.4771" y1="133.613" x2="34.4771" y2="67.6311" gradientUnits="userSpaceOnUse">
<stop stop-color="#37BEE9"/>
<stop offset="0.29" stop-color="#377EE9"/>
<stop offset="0.67" stop-color="#6C3DE9"/>
</linearGradient>
<linearGradient id="paint1_linear_269_2" x1="321.786" y1="-971.687" x2="321.786" y2="-971.687" gradientUnits="userSpaceOnUse">
<stop stop-color="#37BEE9"/>
<stop offset="0.29" stop-color="#377EE9"/>
<stop offset="0.67" stop-color="#6C3DE9"/>
</linearGradient>
<linearGradient id="paint2_linear_269_2" x1="247.737" y1="-660.683" x2="247.737" y2="-660.683" gradientUnits="userSpaceOnUse">
<stop stop-color="#37BEE9"/>
<stop offset="0.29" stop-color="#377EE9"/>
<stop offset="0.67" stop-color="#6C3DE9"/>
</linearGradient>
<linearGradient id="paint3_linear_269_2" x1="194.995" y1="7.40488" x2="194.995" y2="382.585" gradientUnits="userSpaceOnUse">
<stop stop-color="#37BEE9"/>
<stop offset="0.29" stop-color="#377EE9"/>
<stop offset="0.67" stop-color="#6C3DE9"/>
</linearGradient>
</defs>
</svg>
