<svg width="721" height="749" viewBox="0 0 721 749" fill="none" xmlns="http://www.w3.org/2000/svg">
<path d="M359.494 552.686C466.238 552.686 552.772 466.152 552.772 359.407C552.772 252.662 466.238 166.128 359.494 166.128C252.749 166.128 166.215 252.662 166.215 359.407C166.215 466.152 252.749 552.686 359.494 552.686Z" fill="#16191C"/>
<path d="M371.036 321.244C371.036 350.837 357.196 366.245 340.111 366.245C323.026 366.245 309.187 350.837 309.187 321.244C309.187 291.65 323.026 276.243 340.111 276.243C357.196 276.243 371.036 291.65 371.036 321.244ZM486.055 321.244C486.055 350.837 472.215 366.245 455.13 366.245C438.045 366.245 424.224 350.837 424.224 321.244C424.224 291.65 438.063 276.243 455.148 276.243C472.234 276.243 486.073 291.65 486.073 321.244H486.055Z" fill="white"/>
<path d="M63.7959 246.777C97.4507 246.777 124.733 219.494 124.733 185.839C124.733 152.184 97.4507 124.902 63.7959 124.902C30.141 124.902 2.8584 152.184 2.8584 185.839C2.8584 219.494 30.141 246.777 63.7959 246.777Z" fill="url(#paint0_linear_267_2)"/>
<path d="M594.4 173.841C628.055 173.841 655.338 146.559 655.338 112.904C655.338 79.2489 628.055 51.9663 594.4 51.9663C560.746 51.9663 533.463 79.2489 533.463 112.904C533.463 146.559 560.746 173.841 594.4 173.841Z" fill="url(#paint1_linear_267_2)"/>
<path d="M457.646 748.207C491.301 748.207 518.584 720.925 518.584 687.27C518.584 653.615 491.301 626.332 457.646 626.332C423.992 626.332 396.709 653.615 396.709 687.27C396.709 720.925 423.992 748.207 457.646 748.207Z" fill="url(#paint2_linear_267_2)"/>
<path d="M360.241 0C261.341 0 171.612 40.078 106.463 104.845C100.737 110.534 101.722 119.906 108.25 124.628C108.45 124.774 108.651 124.92 108.851 125.066C114.139 128.986 121.433 128.494 126.101 123.862C186.272 64.2378 269.036 27.3508 360.241 27.3508C417.933 27.3508 472.234 42.1019 519.587 68.0487C525.221 71.1302 532.168 69.7262 536.271 64.7666C536.399 64.6207 536.508 64.4749 536.636 64.329C542.014 57.9289 540.355 48.2285 533.025 44.2171C481.715 16.0275 422.802 0 360.241 0ZM360.241 692.886C176.754 692.886 27.4738 543.605 27.4738 360.118C27.4738 329.066 31.7405 298.998 39.7452 270.481C41.5139 264.172 38.4506 257.571 32.4881 254.836C32.1964 254.708 31.9046 254.563 31.6129 254.435C24.3376 250.989 15.6583 255.11 13.4702 262.859C4.77268 293.802 0.123047 326.422 0.123047 360.118C0.123047 558.685 161.675 720.237 360.241 720.237C363.979 720.237 367.717 720.182 371.437 720.073C379.66 719.817 385.805 712.232 384 704.209C383.927 703.863 383.854 703.516 383.781 703.188C382.468 696.988 376.944 692.539 370.598 692.74C367.17 692.849 363.724 692.904 360.26 692.904L360.241 692.886ZM646.239 168.317C646.112 168.444 645.966 168.572 645.838 168.699C641.097 173.057 640.058 180.077 643.449 185.548C674.866 236.329 693.027 296.136 693.027 360.118C693.027 480.061 629.227 585.379 533.809 643.946C528.339 647.301 526.06 654.048 528.376 660.029C528.503 660.357 528.631 660.667 528.74 660.995C531.585 668.653 540.884 671.68 547.849 667.413C651.253 604.051 720.378 489.998 720.378 360.118C720.378 290.739 700.649 225.881 666.515 170.833C662.121 163.74 652.347 162.609 646.257 168.317H646.239Z" fill="url(#paint3_linear_267_2)"/>
<defs>
<linearGradient id="paint0_linear_267_2" x1="63.7959" y1="246.759" x2="63.7959" y2="124.902" gradientUnits="userSpaceOnUse">
<stop stop-color="#37BEE9"/>
<stop offset="0.29" stop-color="#377EE9"/>
<stop offset="0.67" stop-color="#6C3DE9"/>
</linearGradient>
<linearGradient id="paint1_linear_267_2" x1="594.4" y1="-1794.52" x2="594.4" y2="-1794.52" gradientUnits="userSpaceOnUse">
<stop stop-color="#37BEE9"/>
<stop offset="0.29" stop-color="#377EE9"/>
<stop offset="0.67" stop-color="#6C3DE9"/>
</linearGradient>
<linearGradient id="paint2_linear_267_2" x1="457.646" y1="-1220.15" x2="457.646" y2="-1220.15" gradientUnits="userSpaceOnUse">
<stop stop-color="#37BEE9"/>
<stop offset="0.29" stop-color="#377EE9"/>
<stop offset="0.67" stop-color="#6C3DE9"/>
</linearGradient>
<linearGradient id="paint3_linear_267_2" x1="360.241" y1="13.6754" x2="360.241" y2="706.561" gradientUnits="userSpaceOnUse">
<stop stop-color="#37BEE9"/>
<stop offset="0.29" stop-color="#377EE9"/>
<stop offset="0.67" stop-color="#6C3DE9"/>
</linearGradient>
</defs>
</svg>
